<svg xmlns="http://www.w3.org/2000/svg" xmlns:xlink="http://www.w3.org/1999/xlink" viewBox="0 0 307 155"><defs><style>.cls-1{fill:none;}.cls-2{clip-path:url(#clip-path);}.cls-3{fill:gray;}</style><clipPath id="clip-path" transform="translate(4 -8)"><rect class="cls-1" width="299" height="140"/></clipPath></defs><title>h_kids</title><g id="Capa_2" data-name="Capa 2"><g id="Capa_1-2" data-name="Capa 1"><g class="cls-2"><path class="cls-3" d="M303,101.56v.57c-.7,0-1.4,0-2.08,0-7.43.53-14.84,1.11-22.26,1.65a71.75,71.75,0,0,0-14.4,2.33,48.77,48.77,0,0,1-17.73,1.38c-3.52-.32-6.9-.92-10.49-1.06-5.36-.22-10.65-.34-14.29,2.07h.61a114.57,114.57,0,0,1,13.88.26,89.72,89.72,0,0,0,20.13-.15c4.32-.56,8.72-1,12.3-2.43a30.21,30.21,0,0,1,7.16-1.68c8.92-1.09,18.16-.64,27.17-1.27v.42c-2.87.14-5.74.36-8.62.41-5.13.09-10.26.19-15.34.6-3.5.28-7,.64-9.7,1.83a19.55,19.55,0,0,1-2.8.94,61.45,61.45,0,0,1-8.11,1.4,87.89,87.89,0,0,1-18,.69c-3.72-.29-7.46-.57-11.25-.62-4.66,0-9.27.22-13.89.43-4.16.18-8.35.16-12.6.15a2.74,2.74,0,0,0,1.35.31c7.36.3,14.68.7,22,1.26a139,139,0,0,0,17.32,0,113.25,113.25,0,0,0,25.94-4,.84.84,0,0,1,.82,0,6.93,6.93,0,0,1-2.78,1.11,124.65,124.65,0,0,1-25.83,3.45c-3.58.14-7.17.13-10.76.19a65.31,65.31,0,0,0,9.31.75c6.74.07,13.47-.15,20.16-.56A60.25,60.25,0,0,0,273.83,110a61.06,61.06,0,0,1,12.7-2.17L303,106.54v.85a5,5,0,0,0-.57.06c-3.64.86-7.41,1.58-11.14,2.34-5.26,1.07-10.51,2.15-14.65,4.09s-9.41,2.78-15.17,2.89c-9,.17-18.05,0-27-.72-2.68-.22-5.35-.46-8-.81-3.11-.41-6.07-1.06-9.27-1.31-4.81-.37-9.66-.62-14.45-1.05-5.66-.51-11.27-1.19-16.92-1.73-6.88-.66-13.8-1.2-20.81-1.5s-14.07-.2-21.08-.55a75.52,75.52,0,0,1-8.35-.75c-1-.16-2.09-.42-2.19-1s1-.77,1.86-1a27.6,27.6,0,0,1,5.31-.79,35.21,35.21,0,0,0-9.07,1.15,7.47,7.47,0,0,0-.85.4c-.61.34-.61.63.16,1a20,20,0,0,0,5.69,1.24c6.51.69,13.15.76,19.78.88,7.76.14,15.55.15,23.18,1A113.4,113.4,0,0,1,191,112.72a113.48,113.48,0,0,0,22,2.39c3.64.06,7.28.2,10.88.46,6.78.49,13.57.92,20.34,1.47,7.64.62,15.17,1.36,21.89,3.33,1.14.33,2.39.58,3.61.86a48.9,48.9,0,0,1,8.36,2.46,6.36,6.36,0,0,1,2.64,1.62c.85,1.4.48,2.79-.7,4.15a32.59,32.59,0,0,1-7.46,6,42.86,42.86,0,0,1-5.1,2.62l1.61.05c7.87.3,12.51,3.61,9.54,7-2.33,2.64-7.18,3.83-12.76,4.26a108.17,108.17,0,0,1-20.77-.63,36.71,36.71,0,0,1-7.05-1.32c-2.3-.74-2.53-2.69-.27-3.42a48.66,48.66,0,0,1,5.31-1.57c2.76-.58,5.65-.94,8.55-1.29,8.78-1,16.15-3.07,21.33-6.69,2.95-2.06,5.85-4.13,7.05-6.61.57-1.18.16-2.26-1.54-3.19a33.16,33.16,0,0,0-8.6-2.76,1.94,1.94,0,0,0-1.17,0c2.35,1.54,2.25,3.17.68,4.83a13.11,13.11,0,0,1-2.84,2.25c-7.4,4.42-17.09,7.12-28.58,8.37-6.9.75-14,.85-21,1.3a56.92,56.92,0,0,0-11.63,1.63c-1.28.37-2.93.71-2.81,1.59s1.78,1.22,3.26,1.49A127.29,127.29,0,0,0,220.51,145c3.23.21,6.49.28,9.76.26a1.33,1.33,0,0,1-.52.09,117.34,117.34,0,0,1-20.52-1,33.71,33.71,0,0,1-6.06-1.18c-2.29-.82-2.4-1.82-.28-2.74a24.73,24.73,0,0,1,5.46-1.42,134.72,134.72,0,0,1,15.72-1.3c4.26-.24,8.55-.41,12.36-1.48.65-.18,1.46-.31,1.64-.75a18.71,18.71,0,0,0-2.46-.07c-3.75.06-7.38.5-11.07.75-5,.33-10.06.65-14.9,1.41a31.74,31.74,0,0,0-8.93,2.36c-2.66,1.33-2.36,2.65.84,3.69a59.82,59.82,0,0,0,7.48,1.76c6.05,1.11,12.36,1.85,18.51,2.81a249.44,249.44,0,0,0,32.37,2.92,91.35,91.35,0,0,1,20.72,2.73c3.89,1,7.95,1.89,12.15,2.57A76,76,0,0,0,303,157.6v.56l-2.64-.22a131.39,131.39,0,0,1-20.16-3.68,104.41,104.41,0,0,0-22.95-2.8c-4.57-.11-9.13-.36-13.64-.77-9-.83-17.71-2.24-26.45-3.53-4.8-.7-9.79-1.2-14.11-2.54a25.75,25.75,0,0,1-3.51-1.19c-1.91-.92-2.16-2.16-.65-3.23a9.91,9.91,0,0,1,2.35-1.18,54.46,54.46,0,0,1,12.41-2.48c5.72-.63,11.57-.86,17.33-1.38a39.58,39.58,0,0,1,7-.22c.61.05,1.23.11,1.41.43s-.34.53-.83.69c-.75.26-1.56.48-2.44.75a9.45,9.45,0,0,0,2-.07,87.39,87.39,0,0,0,18-3.86c4.87-1.65,9.2-3.57,12-6.15,2.45-2.28,1.6-4.1-2.59-5.72a45.18,45.18,0,0,0-10.44-2.38c-5.9-.74-11.93-1.19-18-1.6-7.19-.49-14.36-1.1-21.61-1.35-2.71-.09-5.44-.26-8.18-.11,2.72.49,5.44.94,8.18,1.36,7.6,1.15,15.33,2.11,22.8,3.43,3.94.7,7.81,1.49,10.5,3.14,2.42,1.47,2.4,3.23-.06,4.7a26.49,26.49,0,0,1-7.09,2.57c-12.67,3.09-26.3,3.59-40.2,3.28-5.48-.12-10.95-.44-16.45-.32a46.94,46.94,0,0,0-13.58,1.85c-3.46,1.17-3.69,2.54-.7,4a25.46,25.46,0,0,0,7.7,1.79,101.3,101.3,0,0,1,24.57,5.8,53.43,53.43,0,0,0,11.73,3q13.17,1.89,26.76,2.93c8.38.65,16.87.77,25.25,1.37a84.93,84.93,0,0,1,16.45,2.44c4.28,1.17,8.48,2.4,12.8,3.54a31.55,31.55,0,0,0,7,1.28v.57a44.5,44.5,0,0,1-7.84-1.47,41.35,41.35,0,0,0-9-1.6c-1.8-.08-3.59-.05-5.39-.06-10.24,0-20.38-.63-30.45-1.49-5.44-.47-10.88-1-16.16-1.77-3.65-.56-7.29-1.15-10.94-1.7-16.1-2.41-32.52-4.27-48.84-6.29-5.29-.66-10.69-1.19-15.43-2.59-1.92-.57-3.94-1.07-5.73-1.71-3-1.09-4.25-2.06-1.71-3.86s6-3,9.58-4.12c7.15-2.28,15.19-3.5,23.52-4.35,2-.21,4-.39,6-.59l5.4-.44a1.14,1.14,0,0,0,.62-.07l2.67-.21a1.11,1.11,0,0,0,.64-.07c3.45-.26,6.87-.6,10.18-1.15a2.16,2.16,0,0,0,.9-.14l1.18-.2a8.6,8.6,0,0,0,1.92-.37,29.11,29.11,0,0,0,4-.92c.27-.07.52-.17.15-.32l0,0c1.49.15,2-.51,2.92-.81l.73-.35A2.6,2.6,0,0,0,223,125a2.83,2.83,0,0,0,1.12-.73c.25,0,.31-.16.35-.27a.38.38,0,0,0,.33-.28c1.73-1.47,1.58-2.56-.49-3.47a18.7,18.7,0,0,0-5.59-1.37s-.07,0-.14,0a6.13,6.13,0,0,0-1.65-.26,38,38,0,0,0-4.58-.78q-10.14-1.55-20.31-3.06l-.6-.11a74.37,74.37,0,0,0-7.47-.91,1,1,0,0,0-.62-.09c-3.79-.43-7.64-.68-11.51-.85-9-.39-17.91-.64-26.91-.62-13.83,0-27.65-.07-41.28-1.4A41.73,41.73,0,0,1,95,109.37c-2.15-.7-2.61-1.62-1.36-2.69.09-.07.21-.16-.06-.28a14.86,14.86,0,0,0-3,.45,25.69,25.69,0,0,0-6.44,1.9c-1.83.9-1.73,1.74.3,2.55a13.17,13.17,0,0,0,1.74.55,81.36,81.36,0,0,0,12.95,1.92c7.9.55,15.85.29,23.78.08,10.88-.29,21.75-.44,32.63.07a5.58,5.58,0,0,0,2.09.12c2.6-.05,5.17.12,7.75.24,4.53.2,9.06.43,13.59.64a1.28,1.28,0,0,0,.84.12c4.81.38,9.55.9,14.27,1.47.18.25.53.31,1,.22,2.73.3,5.37.72,8,1.21l2.52.56,2.42.67,1.14.38.94.36a1.63,1.63,0,0,0,.76.32c.77.29.92.91,2.23.91h0c-.59.1-.24.24-.06.37,1.66,1.19,1.48,2.39,0,3.58l-2.38,1-2.19.67-1.89.48c-1.94.36-3.86.74-5.81,1.08-4.57.8-9.34,1.27-14,1.84-3.82.43-7.67.82-11.46,1.29a191.91,191.91,0,0,0-25.28,4.49,45.06,45.06,0,0,0-10.71,4c-1.86,1.07-1.71,2.17.24,3.2a19.44,19.44,0,0,0,6.4,1.61c6.75.84,13.52,1.63,20.11,2.74,5.81,1,11.15,2.26,14.65,4.77a10,10,0,0,0,5.06,1.58l1.75.18c11.11,1.1,22.18,2.31,33.24,3.54,5.18.58,10.46.92,15.64,1.52,3.41.39,7,.51,10.41.83,9.73.9,19.44,1.85,29.15,2.78.3,0,.83,0,.74.27H270a3,3,0,0,0-1.32-.26q-9.34-.88-18.68-1.77-8.86-.83-17.75-1.6c-7.83-.69-15.65-1.4-23.5-2-7.48-.61-14.94-1.27-22.26-2.24-5.78-.77-11.48-1.67-17.25-2.47-6.69-.93-13.44-1.78-20.12-2.72-2.85-.39-5.59-1-7-2.33a2.89,2.89,0,0,0-2.17-.64c-2.68,0-4.88-.89-5.43-2.06-.82-1.76.84-3.28,2.68-4.64a23.55,23.55,0,0,1,4.66-2.25A91,91,0,0,1,159,133.39c10.45-2,21.47-3,32.35-4.27,7-.81,14-1.68,19.8-3.9,1.15-.44,1.55-.88,1.57-1.63a20.5,20.5,0,0,1-7.25,2.6c-3,.59-6,1.09-9.13,1.53-9.12,1.31-18.49,2.13-27.75,3.16a191.3,191.3,0,0,0-26.36,4.51,48.55,48.55,0,0,0-10.85,3.84c-6,3.24-2.58,8.29,3,10.07a87.58,87.58,0,0,0,15.76,3.17c9.66,1.19,19.34,2.36,28.42,4.35a249.5,249.5,0,0,0,45.61,5.36c5.93.18,11.84.41,17.77.56.39,0,1.12-.17,1.11.26H229.25c-.23-.23-.69-.14-1.06-.15-6.61-.24-13.2-.56-19.75-1a199.35,199.35,0,0,1-27.09-3.91,194.34,194.34,0,0,0-30-3.89,109.33,109.33,0,0,1-15-1.82,70,70,0,0,1-7.35-1.93c.32,1.68.22,1.94-.87,2.64a13.39,13.39,0,0,1-3.37,1.39,96.77,96.77,0,0,1-12.58,2.59c-10.27,1.52-20.74,2.64-31.3,3.6-10,.92-20.14,1.54-30.27,2.12a45.26,45.26,0,0,0-6.09.39h-9.3c.24-.34.9-.23,1.37-.25,7.5-.32,15-.71,22.45-1.15q16.77-1,33.24-2.74c8.75-.94,17.48-1.93,25.82-3.54a38.45,38.45,0,0,0,8.38-2.28c1.75-.79,2.17-1.56,1.27-2.49a19,19,0,0,0-5-3c-.24.2-.29.31-.17.46,1.43,1.68.73,2.83-2.33,3.89a38,38,0,0,1-4.82,1.28,185.75,185.75,0,0,1-20.66,2.7c-7.54.63-15.12,1.09-22.74,1.43-4.31.2-8.62.41-12.94.59-5.61.23-11.23.42-16.83.67a83.35,83.35,0,0,0-11.47.83c-1.66.31-3.41.52-5.13.74A291.82,291.82,0,0,1-4,162v-.56l1.48,0c4.05,0,8.07-.28,12.09-.45a172.58,172.58,0,0,0,18.16-1.62c13.75-2.07,27.77-3.59,41.89-4.95,8.93-.86,17.93-1.57,26.68-2.82,6.25-.89,11.26-2.46,14.07-5.39a61.9,61.9,0,0,1,4.83-4.5,25.91,25.91,0,0,1,9.32-4.9,203.41,203.41,0,0,1,31.34-6.54,18.59,18.59,0,0,0,4.09-.73c-1.6.07-2.83.1-4,.18A254.31,254.31,0,0,0,127.37,133a83.22,83.22,0,0,0-14.6,3.51c-2,.75-4.11,1.48-3.49,2.94,0,0-.06.06-.17.16l-.67-1c-2,1.07-3.79,2.06-5.59,3.07A45.14,45.14,0,0,1,89,146.81c-4.44.87-9,1.51-13.63,2.09-7.4.93-14.95,1.56-22.42,2.34-15.14,1.57-30.23,3.25-45.36,4.85-3.83.4-7.68.78-11.6.94v-.43c5.08-.46,10.19-.85,15.23-1.38q20.19-2.13,40.34-4.34c10.1-1.09,20.33-1.9,30.25-3.36,6.82-1,13.15-2.35,18-5,2.69-1.47,5.42-2.91,8.14-4.37a1.15,1.15,0,0,0,.61-.55,6.33,6.33,0,0,1,2.53-2.62c.16-.11.44-.21,0-.39-.44.11-.92.22-1.38.35a56.38,56.38,0,0,0-11.32,4.27c-6.49,3.33-14.24,5.7-23.1,7.41a264.23,264.23,0,0,1-36.58,4.26c-5.95.29-11.91.54-17.84.89-8.31.47-16.59,1-24.88,1.53v-.57a1.36,1.36,0,0,0,.25.07c5.54-.33,11.08-.64,16.6-1,7.21-.46,14.43-.88,21.67-1.22,5.75-.28,11.49-.58,17.16-1.08,8-.7,15.59-2,23.13-3.35,8-1.47,15.23-3.5,21.07-6.5,2.28-1.17,4.8-2.17,7.33-3.19,3.63-1.47,8-2.41,11.92-3.65a136.58,136.58,0,0,1,22.13-4.56c8.58-1.19,17.5-1.53,26.26-2.28,4.81-.41,9.59-.87,14.19-1.68a6.78,6.78,0,0,0,3.55-1.43c.28-.27.52-.58,0-.85a2.68,2.68,0,0,0-1.79,0,7.55,7.55,0,0,0-.76.23c-3.88,1.55-8.59,2.14-13.4,2.61-4.35.43-8.8.53-13.16.89-8.21.69-16.18,1.8-24.06,3.09A228.75,228.75,0,0,0,93.65,137a88.12,88.12,0,0,1-15.13,3.5c-7.93,1.13-16.16,1.28-24.32,1.69-4.79.24-9.6.44-14.4.65L21,143.66c-4,.17-8,.38-12.07.52-4.32.14-8.62.43-13,.47v-.42l20.12-.86c8.44-.34,16.9-.65,25.34-1,8.69-.38,17.36-.83,26-1.24a100.85,100.85,0,0,0,20.4-3c5.61-1.45,10.73-3.28,16.26-4.79a268.3,268.3,0,0,1,28.06-5.61c6.38-1,12.84-1.85,19.5-2.34,4.42-.32,8.86-.6,13.27-.94a41.73,41.73,0,0,0,8.34-1.4c-2.13,0-4.24.08-6.35.16-5,.2-10,.34-15,.78-6.57.57-13,1.47-19.36,2.36-16.07,2.23-31.73,4.91-46.22,9a119,119,0,0,1-26.93,4.1c-5.36.24-10.74.4-16.09.7h-.6c-1.52-.11-3,.43-4.5.15l-3,.13c-5.83.19-11.65.36-17.47.58q-10.89.42-21.81.68v-.57c2.48.1,5-.06,7.42-.13q10.14-.33,20.29-.66,12.67-.45,25.35-.92c4.51-.18,9-.27,13.49-.68l.9-.06a2.91,2.91,0,0,0,1.23-.12l1.23-.05.54-.09a49.55,49.55,0,0,0,6.81-.8,17.69,17.69,0,0,0,2.75-.48,17.38,17.38,0,0,0,2.62-.5A4.06,4.06,0,0,0,80,136.3c4.19-.83,8.07-1.93,12-3a4,4,0,0,0,1.18-.31l2.14-.49,1.19-.3,2.42-.57,1.3-.31,2.63-.58.55-.1,1.25-.26c.12,0,.18,0,.21-.06l5.22-1,.68-.11c2.79-.35,5.38-1,8.16-1.33,4.4-.59,8.73-1.3,13.1-1.95a277.66,277.66,0,0,1,35.4-3.22,77.24,77.24,0,0,0,9.3-.67c1.05-.15,1.69-.45,1.92-1s0-1-1-1.3a28.43,28.43,0,0,0-5.16-1.27,135.92,135.92,0,0,0-16.56-1.42c-10.57-.37-21.16-.4-31.76-.34-14,.07-28,.08-41.89.77A152.71,152.71,0,0,0,63,119.71c-.57.1-1.15.18-1.3.51h0c-.81-.4-1.43,0-2.12.11l-.65.08a.44.44,0,0,0-.25.06,6,6,0,0,0-1.52.27,10,10,0,0,0-2,.32c-1.82.16-3.5.52-5.24.8a3.59,3.59,0,0,0-1.17.19,7.91,7.91,0,0,0-2.55.68l-.4.16a19.81,19.81,0,0,0-2.76,1,8.09,8.09,0,0,0-1.8.57l-1.54.46-1.45.42c-3,.74-6,1.46-9.19,1.94a154,154,0,0,1-19.5,1.45c-4.53.09-9-.16-13.58-.14V128a220.64,220.64,0,0,0,22.57-.15,94,94,0,0,0,20.09-3.23c4.39-1.25,8.06-2.92,12.07-4.39a90.34,90.34,0,0,1,24.4-5c2.66-.21,5.35-.28,8.16-.44-5.67-1.63-23.56-4.36-34-5.21-10-.82-32.82-1.78-35.27-1.5,7.62.86,15.2,1.86,22.51,3.27a29.38,29.38,0,0,1,6.65,1.88c1.87.88,1.88,1.76,0,2.66a20,20,0,0,1-2,.83,161.34,161.34,0,0,1-26,6.61,130.11,130.11,0,0,1-19.15,2v-.43c3-.17,5.92-.35,8.84-.66a168,168,0,0,0,30.88-6.31,62.52,62.52,0,0,0,6.2-2.1c2.25-1,2.22-1.67-.1-2.55a35.17,35.17,0,0,0-5.6-1.47c-7.89-1.54-16.13-2.54-24.38-3.54C6.48,107.61,1.23,106.8-4,106v-.57a135,135,0,0,0,24,2.21l2.39,0,1.75.07.38,0a14,14,0,0,0,2.67.09l3.89.13c1.4.08,2.79.21,4.21.16a11.08,11.08,0,0,0,2.09.13l2.4.14,12.27.94,1.47.16,3.92.44c7.16.77,14,2,21.08,3a99.43,99.43,0,0,0,15.89.89,1.72,1.72,0,0,0-.5-.11l-.86-.11c-3.3-.45-6.67-.84-9.4-1.91-2.16-.85-2.37-1.89-.65-2.92a16.24,16.24,0,0,1,4.84-1.75,131,131,0,0,1,20.2-2.66c5.93-.34,11.88-.59,17.83-.88l11.37-.08c18.37-.12,36.74-.24,55.09-.76,3.19-.09,6.39-.15,9.55-.33,5.68-.32,11.34-.74,17-1.09,9.67-.59,19.39-.76,29.14-.68a103.09,103.09,0,0,0,14.94-.6c6.25-.87,12.57-1.61,19-2.07,5.45-.39,10.92-.71,16.28-1.34a38.07,38.07,0,0,1,4.75-.57v.43c-12.57,1.77-25.78,2-38.82,3.68,2,0,3.45-.18,5-.25,8.62-.42,17.1-1.25,25.61-2,2.74-.23,5.45-.56,8.24-.62v.43l-1.9.15q-10.8.9-21.59,1.8c-10.46.85-21,1.53-31.62,1.43-7.67-.07-15.34-.09-23.24.26,4.14.06,8,0,11.92.17,3.55.21,7.13.35,10.68.27,6.62-.15,13.24-.43,19.84-.71s13.39-.55,20-1.11c5.29-.44,10.6-.84,15.9-1.27v.57c-3.62.16-7.17.51-10.75.8-6.19.48-12.38,1-18.65,1.19l-13.42.49c-6.71.25-13.39.76-20.15.36-2.38-.13-4.78-.23-7.17-.27-7.13-.1-14.23,0-21.3.55-4.46.36-9,.51-13.46.84-5.66.43-11.25,1.07-17,1.2a52.91,52.91,0,0,0-9.67,1.08,36.05,36.05,0,0,1-8.5.57c-.47,0-1.1-.22-1.42.15a8.23,8.23,0,0,1-1,0,49.77,49.77,0,0,0-7.5-.55c-4.46,0-8.85.25-13.21.66A14.52,14.52,0,0,0,135,107c-.65.32-.59.48.17.69a19.69,19.69,0,0,0,3.25.52c5.95.59,12,.65,18,.71,4.64.06,9.26.22,13.87.51,5.23.33,10.42.81,15.64,1.16,8,.54,16,.93,24,1.4a68.47,68.47,0,0,0,11.63-.71c-8.36-.83-16.58-.81-24.67-1.36-4.78-.33-9.64-.37-14.41-.78-5.72-.48-11.11-1.48-16.58-2.35a24.19,24.19,0,0,1-4.49-.75c2.7.32,5.42.61,8.1,1,4.76.61,9.42,1.4,14.34,1.72a81.39,81.39,0,0,0,8.82.33c-1.07-.26-2-.45-2.79-.7-2.31-.71-2.48-1.57-.61-2.53a21.07,21.07,0,0,1,6.3-1.62c6.38-.89,12.92-1.46,19.47-1.95a100.49,100.49,0,0,1,17.1.49c4.39.42,8.7,1,13,1.56a16.92,16.92,0,0,0,6.49-.37,33,33,0,0,1,4.58-.85c4.9-.56,9.94-.68,14.92-1,5.87-.35,11.7-.82,17.55-1.24,4.72-.34,9.42-.76,14.2-.91v.43c-1.93.1-3.87.16-5.78.32q-18.68,1.53-37.5,2.53a45.5,45.5,0,0,0-7.78,1.2C269.18,104.33,286,102.67,303,101.56Zm-171.81,4.68c-.57.08-1.15.13-1.69.23s-1.28.15-1.26.5.37.57,1.09.69c.12-.65,1.06-1,2-1.32l.8-.17C131.71,106.09,131.41,106.07,131.19,106.24Zm-3.34,34.4c-3.79,2.37-3.74,3.79.41,5.94-1.06-1.94-2-3.89-.15-5.84,0-.06.07-.15,0-.18A.22.22,0,0,0,127.85,140.64Zm45.74-36.22a17.13,17.13,0,0,0-2.55.06,56,56,0,0,1-9.07.18c-2.81-.24-5.65-.25-8.49-.29-7.51-.11-14.94.37-22.4.65-5.1.2-10.22.38-15.23,1a14.13,14.13,0,0,0-3.67.74c-1.1.45-1.06.86.1,1.26a28.73,28.73,0,0,0,3.92,1,98.26,98.26,0,0,0,11.58,1.37c12.35.9,24.81,1.27,37.25,1.71a246,246,0,0,1,33.22,3.07c7.07,1.21,14.35,2.12,21.4,3.38a29.57,29.57,0,0,1,5,1.19c1.87.7,2.7,1.63,2.23,2.76-.53,1.29-1.95,2.35-3.8,3.3-3.85,2-8.84,2.94-14.11,3.67-7.37,1-15,1.4-22.51,2.14a134.08,134.08,0,0,0-21.8,3.56,41.6,41.6,0,0,0-8.39,2.94c-3,1.6-2.71,3.06.76,4.39a35.89,35.89,0,0,0,10,1.89,287.28,287.28,0,0,1,33.57,4.29c2.28.44,4.6.88,7.12,1.14-.12-.37-.59-.53-1-.68-4.45-1.6-8.82-3.26-13.68-4.58A138.67,138.67,0,0,0,177,141.67a31,31,0,0,1-6.3-1.42c-4-1.49-4.05-3.46-.19-5a19.92,19.92,0,0,1,2.54-.74,62.41,62.41,0,0,1,14.56-1.31c5.7,0,11.37.3,17.06.38a163,163,0,0,0,31.46-2.19c4.39-.8,8.67-1.72,11.78-3.51,2.05-1.17,2.21-2.61.42-3.87s-4.43-2-7.21-2.57c-4.71-1-9.71-1.7-14.66-2.41-11.36-1.65-22.71-3.3-33.66-5.5a153.38,153.38,0,0,0-24.15-2.6c-8.95-.35-18-.2-26.91-.71-4.7-.27-9.26-.68-13-2.22-.72-.3-2-.5-1.76-1s1.3-.74,2.24-1c.32-.07.64-.13,1-.17,3.34-.4,6.75-.62,10.18-.71,4.39-.12,8.78-.14,13.17-.23a46.83,46.83,0,0,1,6.83.29A34.34,34.34,0,0,0,173.59,104.42Zm-91.71,9.37a18.87,18.87,0,0,0,5.32.85c11.52.29,23,.54,34.6.42,15.25-.16,30.51-.15,45.72.55,3.22.15,6.43.37,9.63.6a128.45,128.45,0,0,1,14.95,1.68c3.91.75,7.19,1.85,8.71,3.83.81,1.06.48,2-1.22,2.81a35.91,35.91,0,0,1-7.87,2.29,123.08,123.08,0,0,1-14,1.74c-7.34.62-14.74,1.11-21.88,2.17-6.07.91-12.1,1.9-17.85,3.21a50.85,50.85,0,0,0-13.75,4.93c-2.78,1.59-4.5,3.34-3.27,5.5s4.34,4,8.25,5.32c5.79,2,12.48,3,19.43,3.64a18,18,0,0,0,3.56.1c-4.13-.62-8.06-1.25-11.86-2-6-1.25-11.24-2.95-14.9-5.61-2-1.46-1.86-2.9-.09-4.35a23.17,23.17,0,0,1,6.65-3.52c8.11-3,17.39-4.9,27.11-6.33,8.23-1.22,16.73-2,25.12-2.87,7.09-.77,14.1-1.66,20.83-3a22.05,22.05,0,0,0,5.58-1.73c1.72-.87,1.82-1.79.36-2.76a19.61,19.61,0,0,0-6.34-2.31,191.7,191.7,0,0,0-26.78-3.54c-8.17-.62-16.44-.83-24.68-1.13-4.62-.16-9.27-.14-13.91-.18-9.36-.09-18.66.48-28,.46s-18.68,0-27.93-.73C82.88,113.76,82.37,113.79,81.88,113.79Zm44.21,16.88a7.82,7.82,0,0,0,1.91-.06c7.17-1,14.43-1.81,21.83-2.31,8.87-.61,17.77-1.12,26.64-1.73a81.33,81.33,0,0,0,15.22-2.22,16.78,16.78,0,0,0,5.43-2.18c1-.75.94-1.39-.18-2.11a16,16,0,0,0-5.53-1.73c-8.58-1.52-17.63-1.92-26.63-2.38-6.7-.35-13.45-.43-20.19-.51-10.19-.1-20.38-.1-30.56.19-5.57.16-11.09.68-16.7.62a57.58,57.58,0,0,1-7-.38,49,49,0,0,0-7.14-.64A106.42,106.42,0,0,0,57,118.74a52.82,52.82,0,0,0-6.84,2.31,16.69,16.69,0,0,0,2-.08c2.94-.35,5.77-.87,8.59-1.38a178.19,178.19,0,0,1,19-2.39c6.93-.51,13.93-.54,20.9-.68,17.48-.35,35-.48,52.43,0A153.87,153.87,0,0,1,172.86,118a25.32,25.32,0,0,1,8.37,2.51c2.14,1.21,1.79,2.56-.75,3.55a16.38,16.38,0,0,1-3.28.83c-4.82.79-9.8,1.26-14.81,1.65-7.56.6-15.19,1-22.65,1.87C135.1,129,130.63,129.77,126.09,130.67Zm133.77,18.4a51.18,51.18,0,0,0,6.69-.3c4.57-.51,8.52-1.46,10.82-3.54,1.82-1.65,1.2-3.93-1.4-5.14a19.15,19.15,0,0,0-11.68-1c-2,.5-3.93,1-6,1.41-3.72.69-7.59,1.13-11.38,1.69a35.46,35.46,0,0,0-8.41,2.08c-2,.85-1.78,2,.48,2.74a22.17,22.17,0,0,0,3.25.7A126.4,126.4,0,0,0,259.86,149.07ZM42.48,157.94l.06.05c1.48,0,3,.06,4.46,0,10.81-.52,21.66-.87,32.45-1.5,8.31-.49,16.58-1,24.7-2a91.69,91.69,0,0,0,15-2.74c3.41-1,4.09-2.3,2.3-4s-4.37-3-6.84-4.47c-1.44,1.35-2.81,2.68-4.26,4-2,1.77-4.85,3.09-8.72,3.93a149.87,149.87,0,0,1-17.27,2.46c-11.88,1.16-23.84,2.17-35.62,3.57ZM200.32,112.2c2,.15,3.89.29,5.83.45,6,.47,12,.75,17.84,1.67,12.28,2,25,2.24,37.85,2,5.19-.11,10-.84,13.83-2.64a57.83,57.83,0,0,1,13.15-3.86c3.09-.61,6.13-1.26,9.2-1.89-7.29.79-14.69,1.46-21.38,3.08a102.18,102.18,0,0,1-19.76,2.51,157.85,157.85,0,0,1-30.7-1.61,16.7,16.7,0,0,0-5-.06,66,66,0,0,1-13.59.56A45.11,45.11,0,0,0,200.32,112.2Zm13.11,38.33a78.34,78.34,0,0,0,13.06,3.37,343.44,343.44,0,0,0,55.68,4.78h4.52a57,57,0,0,0-12.13-2.93c-7.43-1-15.12-1.19-22.75-1.55q-12.65-.58-25-1.95C222.3,151.74,217.88,151.11,213.43,150.53Zm56.1-46.1c-.59,0-1.2,0-1.79,0q-8.91.51-17.86.82c-6.93.24-13.86-.31-20.8,0a47,47,0,0,0-9.88,1.22,47.19,47.19,0,0,1-11.74,1.74,32.72,32.72,0,0,1-9.28-.81c-1.85-.52-1.88-1.4-.12-2a16.51,16.51,0,0,1,3.25-.69c3.48-.39,6.95-.79,10.44-1.14s6.73-.62,10.46-1c-2.68-.09-5,0-7.23.18-6,.35-11.82,1.06-17.68,1.69a27.08,27.08,0,0,0-7,1.53c-1.83.72-1.73,1.44.27,2a24.86,24.86,0,0,0,6.22.93c5.85.24,11.69.1,17.52,0,3.55-.09,6.73-.54,9.25-1.85a14,14,0,0,1,5.7-1.1,85.11,85.11,0,0,1,14.33.76,54.65,54.65,0,0,0,14.9.16C262.43,106.33,265.68,105.09,269.53,104.43Zm-109.35,39.7a8.13,8.13,0,0,1-3.26,0,5.52,5.52,0,0,0,.8.31,70,70,0,0,0,13.65,2.62l34.17,4.2c3.89.48,7.76,1,11.79,1.51a3.22,3.22,0,0,0-1.38-.54,97.08,97.08,0,0,0-12.2-2.49c-6.41-1-12.62-2.36-19.21-3.16q-11.31-1.38-22.89-2.07a3.31,3.31,0,0,1-.84-.07c-.8-.85-2.75-1-4.07-1.46-1.61-.62-3-1.29-3.52-2.3-.21-.42.32-.81.09-1.26-3.18,1.77-2.82,2.85,1.21,4a15.42,15.42,0,0,0,3.79.59C158.94,144,159.56,144.08,160.18,144.13Zm38.93-22.6c-.8,1-2.41,1.78-4.22,2.42a59.21,59.21,0,0,1-13.43,2.64c-9.41,1-19,1.32-28.51,1.95a300.29,300.29,0,0,0-32.13,3.77c-2.79.49-5.63,1-7.6,2.17a8.86,8.86,0,0,0-2.91,2.15,1.69,1.69,0,0,0,1-.16,40,40,0,0,1,6.07-1.92,201.86,201.86,0,0,1,29-4.55c10.09-1,20.38-1.38,30.55-2.13a116.21,116.21,0,0,0,18.28-2.52,18.66,18.66,0,0,0,4-1.35C200.46,123.36,200.53,122.16,199.11,121.53Zm44-16.91c-3.7-.47-7.34-1-11.09-1.37a58.81,58.81,0,0,0-8.19-.2c-7.29.33-14.35,1.24-21.48,2a12,12,0,0,0-4.1,1c-.68.36-.65.68.2,1a13.45,13.45,0,0,0,3.13.63,45.16,45.16,0,0,0,15.55-1.09,49.23,49.23,0,0,1,12.05-1.68C233.83,104.66,238.47,104.75,243.12,104.62Zm-64.52-1.38c-3.3.1-6.61.23-9.92.28-4.34.06-8.69,0-13,.1-8.17.17-16.36.17-24.51.63-5.14.28-10.36.22-15.46.73a47.57,47.57,0,0,0-8.72,1.39c-3.19.95-3.41,2.24-.58,3.42a24.26,24.26,0,0,0,7.47,1.29c7.74.5,15.53.56,23.31.69,1.33,0,2.66,0,4,0-4.73-.41-9.51-.56-14.21-1a80.39,80.39,0,0,1-13.66-2c-1.36-.37-3.17-.71-3-1.61s2-1.15,3.57-1.41a94.35,94.35,0,0,1,11.4-1c5.46-.24,10.92-.5,16.39-.67,6.17-.2,12.35-.43,18.54-.07,1.78.11,3.59.29,5.35.23C170,104.18,174.31,103.8,178.6,103.24Zm-.52,50c-.26-.22-.28-.27-.35-.29a72.85,72.85,0,0,0-16.56-3.64,32,32,0,0,1-7.1-1.24,26.08,26.08,0,0,0-10-1.31c-.47,0-1.13-.11-1.34.16s.26.45.54.64a13.07,13.07,0,0,0,5.34,1.73l21.44,2.86C172.64,152.53,175.2,152.89,178.08,153.28ZM122,104.08a11.41,11.41,0,0,0-2.19,0c-5.78.11-11.48.54-17.17,1a27.86,27.86,0,0,0-7.22,1.23c-2.28.87-2.23,1.8.12,2.61a11.39,11.39,0,0,0,1.53.44,53.71,53.71,0,0,0,7.78,1,1.72,1.72,0,0,0,1.19-.17,6.44,6.44,0,0,1-.81-.29c-2.78-1.34-2.35-2.93,1.1-3.89a34.24,34.24,0,0,1,3.92-.85A115.2,115.2,0,0,1,122,104.08Zm19,40.36a2.39,2.39,0,0,0,.29,1.13c.3.64.81,1,2.45.83a27.92,27.92,0,0,1,10.52,1.18,31.3,31.3,0,0,0,6.19,1.2,76.68,76.68,0,0,1,15.27,3c1.37.45,2.8.85,4.21,1.28.19-.21.06-.35-.15-.49a24.87,24.87,0,0,0-9.06-3.55,230.41,230.41,0,0,0-22.88-3.42C145.59,145.31,143.38,144.9,141.07,144.44Zm-13.87-7.72a5.48,5.48,0,0,0-.64,0,27.53,27.53,0,0,0-11,5.64c-.3.26-.23.46.11.71,1.48,1.06,3.68,1.83,5.13,3C117.3,142.09,121.3,139.3,127.2,136.72ZM240.65,113a173.16,173.16,0,0,0,18.37,0,74.7,74.7,0,0,0,13.57-1.57,163.54,163.54,0,0,1,18.09-3.08c.35,0,.71,0,.77-.34a104.31,104.31,0,0,0-12.89,1.45c-3.41.67-6.35,1.8-9.92,2.3a174.31,174.31,0,0,1-20.81,1.28C245.44,113,243,113,240.65,113ZM136.51,142.06c-1.13,1.2-1.95,2.3-.31,3.42a7.55,7.55,0,0,0,4.77,1c-.23-.52-.43-1-.66-1.48a1.54,1.54,0,0,0-1-1.06A4.86,4.86,0,0,1,136.51,142.06Zm-30.77-26.54c-5.88-.17-11.76-.42-17.66-.24C93.91,116.12,99.83,115.77,105.74,115.52Zm102,41.08-23.66-2.41C191.85,155.33,199.76,156.13,207.74,156.6Zm-16.16-53.43a79.13,79.13,0,0,0-11.58.62C183.92,103.84,187.75,103.47,191.58,103.17ZM133,103.8a44.61,44.61,0,0,0-9.06.32C127.06,104,130,103.74,133,103.8Zm50.47,50.32h-.11s0,0,0,0h.11Zm-71.83-19.48-.09-.08s-.09,0-.08,0,0,.06.08.09Zm-1.12,2.11-.09,0-.2,0s.07,0,.1,0A.65.65,0,0,0,110.52,136.75Z" transform="translate(4 -8)"/><path class="cls-3" d="M213.57,63.46a4.31,4.31,0,0,0,2.41-4.6c-.23-3.23-1.56-6.08-3-8.91a5.61,5.61,0,0,1-.63-4.14,5.33,5.33,0,0,0-1.14-4.92A2.06,2.06,0,0,1,210.8,39a9.87,9.87,0,0,0,.13-4.39,15,15,0,0,0-1.17-3.31c-1-1.87-1.9-3.79-2.84-5.69a11.46,11.46,0,0,0-3.6-4,5.21,5.21,0,0,0-3.14-.95,9.85,9.85,0,0,0-9.62,5.74,5,5,0,0,0-.22,3.53c1.37,1.71,3.37,2.79,4.83,4.42a3.55,3.55,0,0,1,.76.87,61.35,61.35,0,0,0-6.83-4.82,12.53,12.53,0,0,0-4.21-.75,1.91,1.91,0,0,1-1.68-2.56A31.61,31.61,0,0,0,185,21.8a8.61,8.61,0,0,0-4.63-9.1,9.45,9.45,0,0,0-10.36.81c-3.22,2.34-4.16,5.56-3.39,9.3a22.71,22.71,0,0,0,1.54,4.47,5.77,5.77,0,0,0,2.23,2.5,18,18,0,0,1-3.85,1,6.57,6.57,0,0,0-3.86,1.67,3.26,3.26,0,0,1-2.11.73c-2.83.16-5.66-.26-8.5-.06a4.08,4.08,0,0,1-2-.76l5.41.28,1.67.1c1.8.12,3.16-.38,3.66-2.23a1,1,0,0,1,1-.87,2,2,0,0,0,1.37-1.3c1.85-4.07,2.73-8.23.84-12.53a5,5,0,0,0-2-2.53c-3-1.72-6.12-3-9.75-2.24-4.17.82-8,5.2-7.81,9a8.26,8.26,0,0,0,1,3.15c.19.4.43.77-.19,1.08-.33.15-.25.54-.21.83A9,9,0,0,0,146.53,29a1.22,1.22,0,0,0,1.35.48c1-.12,1,.88,1.26,1.45s-.27.62-.66.7a83.91,83.91,0,0,0-10,2.52c-1.28.44-2.09-.24-2.81-1-.56-.64-1.07-1.31-1.68-1.92a13.23,13.23,0,0,0-3.61-2.38c-.59-.3-.73-.64-.42-1.19.48-.85.76-1.81,1.76-2.3a1.81,1.81,0,0,0,.79-1,13.37,13.37,0,0,0-.32-11.86,8.21,8.21,0,0,0-6.75-4.38c-6.33-.79-12.08,4.19-11.67,10.31.2,3,1.79,5.51,3.77,7.79.66.76,1.69.48,2.71.68a14.12,14.12,0,0,0-2.13.35,3.66,3.66,0,0,0-2.72,2.42c-.15.59-.6.67-1.13.62s-.45-.53-.45-.86A11.81,11.81,0,0,0,111,21.57a.47.47,0,0,0-.06-.09c-1.79-2.09-7.3-3.83-10.08-3.22-3.54.77-5.24,3.24-6.3,6.25a8.33,8.33,0,0,0,.36,6.56c.1.22.18.44.26.66.58,1.64.47,1.8-1.25,1.89A6.27,6.27,0,0,0,90,35.35a3.85,3.85,0,0,1-1,.73c-2.35,1-3.87,3.68-3,6,.82,2.15-.07,4-.66,5.83-.48,1.52-1.39,2.92-1.88,4.46a8.2,8.2,0,0,0-.18,4.5,4.21,4.21,0,0,0,2.48,2.92c1.6.75,1.59.77,1.2,2.47-.83,3.63-2,7.19-2.43,10.9-.18,1.5-.33,3,1.24,4.08.13.09.2.19.13.32-.92,1.66-.29,3.4-.32,5.1,0,.53.15,1.07.13,1.6-.23,6.71.82,13.36,1.09,20.06A21,21,0,0,0,88.16,111a.54.54,0,0,1,.06.38,6.74,6.74,0,0,1,.74,1.09c.53,1,1,2.15,1.38,3.22a22.21,22.21,0,0,1,1.35,7.16v.4a.5.5,0,0,1,.07.64.45.45,0,0,1-.1.13c-.18,2.18-1,4.33-.55,6.51a1.71,1.71,0,0,1,.14.27c.15.4,2,.37,2.48.36,1.1,0,2.19-.14,3.29-.21,2.82-.21,5.6-.44,8.41-.52h.13l.82,0h0c.69,0,1.38,0,2.07,0,3.81.05,7.61.46,11.41.51,1.24,0,2.46.09,3.67.19,5.58,0,11.16,0,16.75,0,19.09,0,38.19,0,57.29,0a26.45,26.45,0,0,1,3.68.24c1,0,2-.06,3.07-.11a4.76,4.76,0,0,0,1.69-.34,3,3,0,0,0,.82-.73,7.23,7.23,0,0,0,.94-3.56,31.78,31.78,0,0,1,.53-3.22c.08-.36.16-.73.25-1.09h0c-.19-.37-.08-.57.17-.72.12-.6.26-1.19.43-1.77a23.52,23.52,0,0,0,.25-4.11c0-.39,0-.77.07-1.16l-.09,0,.07-.08,0,0v-.07a.39.39,0,0,1,0-.32,42.1,42.1,0,0,1,1.08-5.41.22.22,0,0,0,0-.08,1.24,1.24,0,0,1,.05-.83v-.07a1.35,1.35,0,0,1,.07-.41c0-.15,0-.31,0-.47a9.13,9.13,0,0,1,.15-1c0-.87.1-1.74.19-2.6.38-3.66,1.06-7.28,1.27-11,.31-5.48,1.08-10.91,1.86-16.35a25.08,25.08,0,0,0-1-11.33C213,64,213,63.75,213.57,63.46Zm-20.41,6.1c.63-1.92,2.23-2.92,3.51-4.2-1.67.39-2.49,2-3.94,2.74a1.23,1.23,0,0,1,.06-1.2c1.22-1.73,2.43-3.44,4.54-4.33a19.16,19.16,0,0,0,3.94-2.8c2.62-2,4-1.64,5.31,1.25a4.73,4.73,0,0,1,.25.66c.57,1.77.48,1.89-1.39,2.43a13.84,13.84,0,0,0-4.86,2.56l-2.1,1.72c-.46.43-.8,1-1.47,1.18a3.45,3.45,0,0,1,.63-1.58c.14-.37.29-.73.52-1.32C196.36,67.55,195.05,68.87,193.16,69.56Zm3.82.06v.09h-.09Zm-2.71,1.12c-.24.12-.64.23-.81-.12s.15-.49.41-.6a13,13,0,0,0,2.6-1.62A3.32,3.32,0,0,1,194.27,70.74Zm1.08.37a3,3,0,0,1-.36.29c-.11,0-.19,0-.16-.13a.35.35,0,0,1,.18-.2C195.08,71,195.18,71.08,195.35,71.11Zm.42,3.84c2.3.66,4.63,1.27,6.94,1.88,1.58.42,3.17.79,4.76,1.2.25.07.82,0,.42.53h0a12.29,12.29,0,0,0-3.09,0,25.54,25.54,0,0,1-6.35-.55c-2.82-.66-4.87-2.72-5-5-.09-1.31-.09-1.31,1.32-1.63.19.22,0,.34-.14.5C193.7,73.28,194.12,74.47,195.77,75Zm13,4.24-2.41.67a3.27,3.27,0,0,0-2.32,2,30.16,30.16,0,0,0-2.18,10c-.17,3-2.89,3.88-5,3.63-.94-.11-1.16-.75-1.33-1.46a44.42,44.42,0,0,1-.79-6.07,59,59,0,0,1-.42-7.52,3.65,3.65,0,0,1,.83-1.84c-1.07.16-1.27.8-1.32,1.56a48.73,48.73,0,0,0,.31,7.92c.17,1.74.34,3.48.63,5.19.57,3.44,1.21,2.76,3.83,2.69a3.65,3.65,0,0,0,2.88-1.44,1,1,0,0,1,.26-.31c.22-.11.3.09.4.21a3,3,0,0,1,1,1.85c0,.37-.45.25-.7.26-1.43,0-2.87,0-4.31.06-.63,0-1.26,0-1.89,0-1,0-1.44.55-1.24,1.44,1,4.73,1.41,9.55,2.33,14.28a28.15,28.15,0,0,1,.33,3.3,5.23,5.23,0,0,1-1.41,3.85,1.67,1.67,0,0,1-.24-1.14c.36-4.46-.66-8.81-1.11-13.2-.39-3.69-.61-7.42-1.24-11.08a117.14,117.14,0,0,1-1.34-18.41c0-.89,0-1.78,0-2.68.43,0,.51.19.56.4.66,3.15,3,4.66,6,5.29a33.79,33.79,0,0,0,9.94.32c.85.13,1.57-.47,2.7-.45Zm2.28.32c-.92.85-2.15.76-3.21,1.1-.3.1-.72,0-.78.43a2.71,2.71,0,0,0-1.76.38c-.16.12-.3.15-.38-.07l.25-.12c1.09-1.15,2.67-1.18,4.09-1.53A3.31,3.31,0,0,1,211.06,79.51Zm-8.13,20.31.07-.06a.75.75,0,0,1,.06.13s0,0-.06.06c-.64,3.24-.08,6.36-.31,9.46a26.6,26.6,0,0,1-1-7.67A2.17,2.17,0,0,1,203,99.91.36.36,0,0,1,202.93,99.82Zm1.17-.44c1.15,2.75.89,5.61.81,8.44-.1,3.42-1.43,6.62-1.8,10l-.5-.06C203.63,111.66,203.48,105.51,204.1,99.38Zm-1.7-7a38.44,38.44,0,0,1,1.27-7.32c.23,3.32-.1,6.65-.2,10A2.86,2.86,0,0,1,202.4,92.37ZM202,123.56c-.94-.61-1.83-.81-2.69-1.28a14.15,14.15,0,0,1,2.35,0C202.26,122.42,201.88,123,202,123.56Zm-1.32.13c.36.18,1.05.19,1,.74s-.78.18-1.08.33a6.14,6.14,0,0,1-2.42-.47,1.69,1.69,0,0,1-1-1.06.81.81,0,0,1,.13-.94c.28-.23.55.08.81.19C198.91,122.88,199.81,123.26,200.67,123.69Zm.64,3.27a4,4,0,0,1-3.83,1.57,2.38,2.38,0,0,1-2-2.36c-.09-.64-.31-1.3.17-1.93a4.39,4.39,0,0,0,5,1.92c.24,0,.53-.17.68,0A.71.71,0,0,1,201.31,127Zm-.39-1.45c-2.79.57-4.65-.31-4.66-2.23C197.17,125.31,199.19,125.08,200.92,125.51ZM189.59,101c.42,4.4-.58,8.73-1.27,13.06a24.48,24.48,0,0,0-.41,6.89,6.53,6.53,0,0,1-.87-3.72,53.79,53.79,0,0,1,1.21-7A31.91,31.91,0,0,0,188.64,99c-.53-3.26.17-6.38.87-9.53a72.12,72.12,0,0,0,1.65-11.22c.05-1,0-1.92-1.45-2.28,1.77-.71,1.77-.71,1.87,1a53.07,53.07,0,0,1-1,11.59C189.9,92.65,189.19,96.75,189.59,101Zm-18.23,26.74a5.52,5.52,0,0,0,1.39-2.52c.26-.64.47-1.06,1.29-.77a4.13,4.13,0,0,0,1.11,0,8.59,8.59,0,0,0-2.79,3,3.15,3.15,0,0,1-.54.61,1.28,1.28,0,0,1-1.56,0c-.53-.31-.22-.76,0-1.14a15.35,15.35,0,0,0,1-3.37c.88.33,1.18.82.84,1.65s-.56,1.58-.84,2.37A.75.75,0,0,1,171.36,127.73Zm2.08-4.07c-1.42-.16-2.35-1-2-2.19.87-2.77.21-5.42-.33-8.11-.57-2.84-.4-5.75-.8-8.6-.56-4-1.24-8-1.8-12-.76-5.34-1.56-10.69-1.2-16.1,0-.47.13-.93.2-1.39a.71.71,0,0,1,.38-.58,2.76,2.76,0,0,1,.4,2.78,4.33,4.33,0,0,0-.29,2.44,24.26,24.26,0,0,0,2,7.54.88.88,0,0,1-.26,1.27,1.72,1.72,0,0,0-.44,1.76c.42,3.63,1.13,7.21,1.73,10.82s.62,7.34,1.09,11c.26,2.06.55,4.12.92,6.16a1.85,1.85,0,0,1-.29,1.49c-.85,1.33-.63,2.12.87,2.69,2,.74,3.84.7,5.35-1.2l.62-.77c.18,1.81-.12,2.2-1.74,2.71A10.68,10.68,0,0,1,173.44,123.66Zm-7.39-55.57-.34,0c-.15-2.38-.29-4.76-.44-7.14,0-.37-.09-.73-.13-1.09-.08-.87-.4-1.45-1.52-1.13A4.68,4.68,0,0,1,167,57.56C165.75,61,166.19,64.58,166.05,68.09Zm-3.23,21.08a190.89,190.89,0,0,0-1.62,21.22,42.84,42.84,0,0,1-.95,7c0,.08-.1.14-.34.46,0-.74,0-1.23,0-1.71a116.85,116.85,0,0,1,1.16-17.42c.76-4.53.9-9.13,1.43-13.69.1-.83.19-1.67.28-2.5.12-1,.09-2-1.24-2.48a3.74,3.74,0,0,1,1.64-.18c.55,0,.36.38.36.64A65,65,0,0,1,162.82,89.17Zm-8.44,36.9a4.9,4.9,0,0,0,4.68-.43c.23-.17.43-.32.7,0a1.79,1.79,0,0,1-.65,2.63,27.7,27.7,0,0,1-4.25.87c-1.46,0-2-.46-2-1.6,0-.13,0-.27,0-.4C152.89,125.62,152.9,125.59,154.38,126.07Zm-1.22-1.63c1.88.29,3.52.82,5.32.59C157.46,126.34,154.7,126.05,153.16,124.44Zm7,4.11a4.09,4.09,0,0,1-2.62.78A20.83,20.83,0,0,1,160.12,128.55Zm-3.31-4.09a16.44,16.44,0,0,1-3.46-.75c-.17,0-.35-.08-.42-.26-.71-1.82-1.52-3.64-.81-5.65a8.27,8.27,0,0,0,.71,4.15c.27.85.89,1.13,1.75,1.32a3.68,3.68,0,0,0,4.29-1.82,11.08,11.08,0,0,1,.82-1C160.89,123.11,159.77,124.66,156.81,124.46Zm-15,3.06.09,0-.19.13C141.63,127.61,141.66,127.55,141.77,127.52Zm-.1.18h0l-.17.16-.1-.12C141.48,127.7,141.56,127.58,141.67,127.7Zm-1.15-.53c0-.47.37-.65.7-.76,2.38-.82,3.18-2.61,3.4-4.81a2,2,0,0,1,1.17-1.89l.24,0-.1.19c-1,1.17-1.09,2.64-1.49,4A4.6,4.6,0,0,1,140.52,127.17ZM142,97.7c-1.28,0-1.86-.57-1.94-1.76-.4-5.92-.18-11.86-.32-17.78,0-1.33,0-1.28,1.16-.71a22,22,0,0,0,6.74,1.79,55.34,55.34,0,0,0,6.81.43,30.37,30.37,0,0,1,3.6.09,47.93,47.93,0,0,1-8.51.27,34.49,34.49,0,0,1-6.87-.75c-1.67-.41-2.4.13-2.24,1.75.45,4.64.37,9.3.57,14,.06,1.32.26,1.53,1.69,1.64,1.77.15,3.44.49,4.65,2-2.12-.71-4,0-6,.67-.26.1-.54.27-.74,0a.89.89,0,0,1-.16-.65c.1-.37.46-.17.71-.17a2.17,2.17,0,0,0,1.75-.7ZM159.5,119a2.56,2.56,0,0,1-.93,2c-.62.71-1.29,2-2.09,1.76s-1.47-1.39-2.09-2.22a2.83,2.83,0,0,1-.19-2.25,70.44,70.44,0,0,0,1-12.8c0-2-.67-3.83-.89-5.75-.51-4.34-.49-8.7-.82-13,0-.47-.05-.94-.1-1.4-.19-1.82,0-2.22,1.74-3a26.33,26.33,0,0,1,5.73-1.59,1.07,1.07,0,0,1,1.37,1.21c0,.33-.07.66-.11,1-.69,7.47-1.62,14.92-2.4,22.38A66.24,66.24,0,0,0,159.5,119Zm-6.21-4.38a66.11,66.11,0,0,1,.26-9.23,6.62,6.62,0,0,0-.51-3.55,10.35,10.35,0,0,1-.83-6.17c.43-2.93.09-5.89.39-8.82,0-.19,0-.4.13-.56.35,3.5.51,7,.68,10.51a34.32,34.32,0,0,0,.82,6,28.46,28.46,0,0,1,.13,9.3c-.24,2.28-.44,4.59-.81,6.87-.23,1.42.54,2.49,1.82,3.47a1.5,1.5,0,0,1-2-.81,6.47,6.47,0,0,1-.27-4.79A8.13,8.13,0,0,0,153.29,114.57Zm4.43-33.7c-.66.21-1.34.38-2,.59-2.21.73-3.6,2-3.72,4.43-.21,4.08-.17,8.17-.51,12.24a6.48,6.48,0,0,0,.68,2.92,9.53,9.53,0,0,1,.71,4.92,52.49,52.49,0,0,0-.26,7.42,8.49,8.49,0,0,1-.26,3.25v.58h-.12v-.58c0-3.24-1.13-6.31-1.58-9.49-.21-1.46-.42-2.92-.56-4.38a5.18,5.18,0,0,0-.92-3c-.35-.42-.15-.87-.11-1.33.41-4.48,1.94-8.75,2.56-13.19a3.71,3.71,0,0,0-.1-1.59c-.13-.39-.31-.76-.82-.81a1.08,1.08,0,0,0-1.1.62,4.87,4.87,0,0,0-.57,1.71c-.44,3-.85,5.91-1.29,8.86a17.32,17.32,0,0,0,.09,4.22c-1.55-1.76-3.47-2.07-5.44-2.23-.58,0-.76-.36-.78-.86,0-1.11-.1-2.21-.11-3.31,0-3.62-.2-7.23-.45-10.84-.1-1.36,0-1.4,1.38-1.12a57,57,0,0,0,13.5.68l2.44-.11C158.28,80.84,158,80.8,157.72,80.87ZM148,120.36a5.15,5.15,0,0,1,3.47,2.54,12,12,0,0,0-6.36,1.4,13.93,13.93,0,0,1,.53-2.61C146.12,120.38,146.61,120.11,148,120.36Zm-.92-.7a3.62,3.62,0,0,1,3-.19,2,2,0,0,1,1,2A5.14,5.14,0,0,0,147.07,119.66Zm4.07,1.82c.2,0,.16.1.17.21s0,0,0,.08S151.18,121.57,151.14,121.48Zm-.4-4.26a10.25,10.25,0,0,0-1.57,0,18.13,18.13,0,0,0-3.75.36c-.26,0-.58.2-.76-.1s0-.51.19-.74a1.78,1.78,0,0,1,1.35-.66c1-.15,2.09-.25,3.1-.5,1.45-.35,1.9-1,1.55-2.41-.8-3.09-1.36-6.22-2.07-9.32-.83-3.67-3.55-4.81-7.08-3.1-.33.16-.76.73-1,.3s.38-.76.74-1a6.58,6.58,0,0,1,5.89-.79,2.88,2.88,0,0,1,2.13,2.71,74.7,74.7,0,0,0,1.66,10.41,14.65,14.65,0,0,1,.53,4.12C151.56,117.1,151.41,117.32,150.74,117.22Zm-7.57-7.1,0,0c1.24,1.72,1,3.85,1.63,5.72.1.26-.26.44-.57.61a39.32,39.32,0,0,1-1.21-6.13S143.11,110.18,143.17,110.12Zm-.15,0,.14,0-.11.11Zm5.81-19c.34-1.68.44-3.38.63-5.08a7.54,7.54,0,0,1,.66-2.31c.08-.17.16-.41.4-.41s.35.27.43.49a2.81,2.81,0,0,1,.06,1.38c-.31,3-1.34,5.81-1.88,8.73-.2,1.1-.38,2.19-.57,3.29A14.36,14.36,0,0,1,148.83,91.16Zm-7.65,10.5a6.56,6.56,0,0,1,4.28-1,2.69,2.69,0,0,1,2.46,2.15c.42,1.69.73,3.41,1.12,5.11.34,1.5.7,3,1.09,4.5.54,2.11.28,2.51-2,2.88-.44.08-.9.12-1,.14-1.58.06-1.87-.09-2-1.34a10.8,10.8,0,0,0-2.29-5.49,11.54,11.54,0,0,1-2.22-5.36A1.4,1.4,0,0,1,141.18,101.66Zm1.23,8.83c.26,2.35.84,4.37,1.25,6.42.24,1.21.55,1.36,1.81,1.21s2.7-.3,4.06-.43A1.88,1.88,0,0,1,151,118a23.3,23.3,0,0,1-3.15.38,8.59,8.59,0,0,0-2.86.93c-.64.4-.93.15-1.29-.28a5.18,5.18,0,0,1-1.12-3.07,12.24,12.24,0,0,0-.44-3.66C142,111.82,142.29,111.28,142.41,110.49Zm6.1,13.11a17.35,17.35,0,0,1,2.28-.16c.58,0,.77.37.86.83s-.35.55-.71.64c-1.92.49-3.82,1-5.76,1.45-1.08.24-2,1-3.1,1C144.29,126.24,145.71,123.9,148.51,123.6ZM145.1,127c1.94-.56,3.91-1,5.86-1.5.32-.09.72-.3.89.16a.81.81,0,0,1-.25,1.08c-.87.62-1.73,1.24-2.58,1.88a2.07,2.07,0,0,1-1.6.3c-1.73-.23-3.46-.42-5.24-.48A7.15,7.15,0,0,1,145.1,127Zm17.49-47.9c-4.26-.06-8.54.11-12.8-.22a32.75,32.75,0,0,1-7.49-1.37,3.25,3.25,0,0,1-1.36-.72l-.47-.23c.25-.09.44-.13.58.1,6.94,1.86,14.06,2,21.19,2a4.22,4.22,0,0,0,1.92-.4c.2-.33.57-.62.28-1.21-.61,1.13-1.67,1.08-2.7,1.08-6.17,0-12.34-.12-18.39-1.46-3.55-.78-4.16-1.57-4.15-5a19.1,19.1,0,0,1,.52-4.58,3.22,3.22,0,0,1,2.37-2.43,29.73,29.73,0,0,1,8.22-1.43A49.11,49.11,0,0,0,162,61c1-.29,1.39,0,1.53.89a18.31,18.31,0,0,1,.24,2.09c.19,3.75,1,7.43,1.53,11.15a6.43,6.43,0,0,1-.1,2.69,1.25,1.25,0,0,1-.72.92A2.73,2.73,0,0,1,162.59,79.07ZM126.44,123a50.39,50.39,0,0,1,5.45,1C130.39,124.61,127.42,124.11,126.44,123Zm5.88,4.42c.57.83.25,1.27-.81,1.35-.66.05-1.32.07-2,.11v0h-1.36c-1.46,0-1.75-.23-1.69-1.64.11-2.77.31-3,3-2.18A5.5,5.5,0,0,1,132.32,127.4Zm-7-6.68c1.11,1,2.68,1.12,3.88,2a7.64,7.64,0,0,1-2.42-.32A1.72,1.72,0,0,1,125.34,120.72Zm3.92,2,.25.06s-.07.07-.1.07S129.23,122.8,129.26,122.69Zm2,.16a29.62,29.62,0,0,1-5.09-2.33h0l.1-.13,0,.07a2,2,0,0,1,1.33.28,17.84,17.84,0,0,0,3.6,1c1.17.18,1.74-.07,2.19-1.16a7,7,0,0,0,.36-1.36c.08-.43.11-.86.16-1.3a3.73,3.73,0,0,1-1.71,5C131.85,123.16,131.56,123,131.25,122.85Zm2.31-6.46a29.18,29.18,0,0,1-.51,3.48c-.36,1.29-1,1.64-2.31,1.28-1.71-.45-3.3-1.3-5.13-1.37-.53,0-.48-.39-.5-.72a59.77,59.77,0,0,1,.21-8.24,43.7,43.7,0,0,0,1.67,5.61,1.7,1.7,0,0,0,.62-1.35,40.78,40.78,0,0,0,.29-8.41c0-.77-.06-1.54,0-2.31a3.58,3.58,0,0,1,2.41-3.54c.84-.33,1.95-.84,1.65-1.91s-1.49-.69-2.36-.72c-.64,0-1.58.3-1.76-.41s.78-1,1.39-1.27a9,9,0,0,1,1.68-.56,4.7,4.7,0,0,0,3.73-3.54,35.55,35.55,0,0,0,1-6.14l.21-2v-.89h.12l0,.89a52.49,52.49,0,0,1-.09,14.11,57.37,57.37,0,0,0-1,8.47A63.94,63.94,0,0,1,133.56,116.39Zm-5.16-15.58a1.74,1.74,0,0,1-1.34-.48,1.23,1.23,0,0,1-.21-1.49c.25-.5.69-.28,1.1-.19a11.3,11.3,0,0,0,2.6.08c.31,0,.65,0,.78.34s-.1.58-.36.76A5.4,5.4,0,0,1,128.4,100.81Zm-5.94-23.6a7.63,7.63,0,0,1-.9,4c-.85,1.38,0,2.94.25,4.41.13.69.3,1.37.46,2a4.82,4.82,0,0,1,.44,1.62c1.53,3.38.35,6.7-.34,10a80.47,80.47,0,0,0-1.83,16.35,5.9,5.9,0,0,0,.91,3.63,2.32,2.32,0,0,1,.4,2.37,1.83,1.83,0,0,1-1.51,1.24,6.37,6.37,0,0,1-5-1.39c-.23-.18-.4-.34-.14-.61,1.84-1.92,1-4.12.73-6.26q-.69-6.5-1-13a10.09,10.09,0,0,1,.89-3.58c.31-1,.68-1.89,1-2.85.16-.5.45-.64,1-.66,3.42-.14,4.83-1.64,4.69-4.91l-.65-1.89a22.31,22.31,0,0,1-1.75-3.86,7.63,7.63,0,0,0-1.62-2.79,2.05,2.05,0,0,0-1.85-.73,1.23,1.23,0,0,0-1.09,1.55,3.87,3.87,0,0,0,3.09,2.35c-.55-.44-1-.77-1.36-1.08a4,4,0,0,1-1-1c-.21-.37-.33-.76.08-1.09a.92.92,0,0,1,1.16,0,3.24,3.24,0,0,1,1.24,1.33c1,2.19,2,4.37,2.84,6.58.51,1.28.34,1.57-.88,2.27a4,4,0,0,1-.65.33,5.93,5.93,0,0,0-4.25,4.67,2.43,2.43,0,0,1-.76,1.41c-.27.25-.52.64-.94.55s-.46-.58-.51-.91c-.2-1.5-.36-3-.51-4.49-.5-5-.91-10.08-1.83-15.06a13.74,13.74,0,0,1-.28-3c0-.73.3-1,1.09-.89,1.77.24,3.54.45,5.32.62,3.35.3,6.72.14,10.11.29-1.25.32-2.48.65-3.73.94A1.46,1.46,0,0,0,122.46,77.21Zm1.68,5.24a2.48,2.48,0,0,1,0,.9,43.15,43.15,0,0,1-.73,5.84c-.45-2.26-1.53-4.37-1.52-6.71,0-.61,0-1.51.8-1.54S124,81.7,124.14,82.45Zm-1.39,36.81a4.51,4.51,0,0,1,.19,2.27,1.24,1.24,0,0,1-1.07,1.15c1.26-1.36.76-2.63-.06-3.9a3.77,3.77,0,0,1-.62-2.2,98.76,98.76,0,0,1,.72-11.91,2.05,2.05,0,0,1,.15-.32,1.63,1.63,0,0,1,.18,1.16c0,3.31-.08,6.62-.16,9.93A8.47,8.47,0,0,0,122.75,119.26Zm-8.08,2.65a6.83,6.83,0,0,0,3,1.32C115.3,123.35,115.12,123.27,114.67,121.91Zm2.63,2.3-.18.08s0-.05-.06-.07a.56.56,0,0,1,.16-.07S117.27,124.19,117.3,124.21Zm-3-2.45c-.92-1-.92-1.48-.17-2.32a2,2,0,0,0,.49-2.15,20.89,20.89,0,0,1-.93-8.34,27.25,27.25,0,0,0-1.17-8.82,44.84,44.84,0,0,1-1.25-9.45A91.93,91.93,0,0,1,111,80.47a13.82,13.82,0,0,1,.56,3.51c.47,4.2.89,8.4,1.33,12.59a6.63,6.63,0,0,0,.16.89c.29,1.19.64,1.41,1.92,1.16-1.35,3.28-.25,6.57-.19,9.84,0,2.61.54,5.19.65,7.8,0,.69.36,1.39.38,2.13a1.93,1.93,0,0,1-.69,1.6A1.84,1.84,0,0,0,114.3,121.76Zm3.06-27.84c1.11-1.5,2.93-1.75,4.25-2.67.07-.06.18-.18.2-.16s.09.2,0,.32C121,93.48,120.14,94,117.36,93.92Zm-4-20.5c-1.1-.17-2.25-.23-2.55-1.5,5.22,1.43,10.62,1.22,16,1.43,1.67.07,3.35,0,5,.23-.56,0-1.12.09-1.69.12C124.57,74,119,74.31,113.39,73.42ZM109,60.33c-.18,1.44-1.19,2.05-2.78,1.36.4-.24.78-.44,1.12-.68a1.06,1.06,0,0,0,.37-1.35,1,1,0,0,0-1.11-.57c-2.44.23-4.75.74-6.6,2.47-1.26,1.18-2.36,2.48-3.52,3.73a36.86,36.86,0,0,1-4.44,4.12A3.25,3.25,0,0,0,91,70.47c.31.23.45,0,.63-.17a34.06,34.06,0,0,0,7.08-6.68,10.59,10.59,0,0,1,7.36-4c.45,0,1-.23,1.12.37s-.39.79-.86.94a17.22,17.22,0,0,0-2.13.47c-.53.24-1,.53-.93,1.18s.62.7,1.15.85c.89.24,2.07-.28,2.66.6a9.71,9.71,0,0,1,1.76,4.25,16.51,16.51,0,0,1-.14,4.21c-.25,1.71-.64,2.12-2.44,2.5a42.51,42.51,0,0,1-6.54.9,59.1,59.1,0,0,1-11.44-.33c-1.38-.19-1.65-.44-1.49-1.78.31-2.59.71-5.17,1.09-7.75a27.29,27.29,0,0,0,.32-4.51,9.75,9.75,0,0,1,.72-3.73,27.18,27.18,0,0,0,1.5-4.9,10.37,10.37,0,0,1,2.09-5.73,10.62,10.62,0,0,0,1-3.72A1.51,1.51,0,0,1,94,45a7.2,7.2,0,0,1-1.14,2.88,15.16,15.16,0,0,0-1.84,4,1,1,0,0,0,0,.78c2.18.7,2.55,2.65,3.29,4.34.13.31.19.64.36,1.22.46-1.07.88-1.93,1.18-2.83A2,2,0,0,1,97,54.15a3.45,3.45,0,0,0,2-3.34,24,24,0,0,1,.15-2.4,2.34,2.34,0,0,1,2.78-2.18,4.59,4.59,0,0,1,3.18,1.91c.3.36.38,1,1.06,1a3.38,3.38,0,0,0,1.37,2A4.86,4.86,0,0,1,109.16,55,40.94,40.94,0,0,1,109,60.33Zm.1,6.21a3.79,3.79,0,0,1-.91-1.75c-.53-1.45-1-1.78-2.61-1.82h-.73c-.38,0-.9,0-.92-.45s.47-.69,1-.75a1.34,1.34,0,0,1,.88.26,3.06,3.06,0,0,0,2.09.48c.64-.14.81.09.89.59,0,.23.06.46.09.69Zm-2.76,38.38a59,59,0,0,1-.39,10.63,31,31,0,0,0-.11,3.61c0,1.56-.43,2.13-2,2.43a7.84,7.84,0,0,1-3.93-.32c-.78-.25-.8-.87-.76-1.48a56.8,56.8,0,0,0,.3-6.52c-.3-9.11-.73-18.2-1.72-27.26,0-.33-.26-.68,0-1a0,0,0,0,0,0,0c.56.77,1.49.81,2.31,1a13.06,13.06,0,0,0,5.32.12,2.67,2.67,0,0,0,2.43-2.59A37.32,37.32,0,0,0,108,78.9c0-.76,0-1.56-1-1.94.44-.41.89-1,1.35-.88s.49.9.55,1.43a45.87,45.87,0,0,1-.11,7.13,61.73,61.73,0,0,1-2,13.29A21.91,21.91,0,0,0,106.38,104.92Zm-7,21.25c0-.6-.21-1.43.11-1.74s1.1.26,1.68.4a4.62,4.62,0,0,0,3.11-.6,2,2,0,0,1,2.37.26c.68.58,1.44,1.07,2.11,1.65a1.12,1.12,0,0,1,.45,1.16c-.16.48-.67.41-1.07.46a26.46,26.46,0,0,1-4.08.11c-1.15-.06-2.3-.13-3.45-.18-.83,0-1.32-.35-1.23-1.22C99.4,126.37,99.39,126.27,99.39,126.17Zm4.62-3a2.59,2.59,0,0,1,1.25-.09c-1.86,1.34-3.81,1.53-5.14.55-.23-.17-.65-.35-.42-.68s.5,0,.76.07A4.79,4.79,0,0,0,104,123.21Zm-3.36-.87c1.27.36,2.53,0,3.78,0A3.86,3.86,0,0,1,100.65,122.34Zm-3.8-40.18a5.68,5.68,0,0,1-1.25-3.11c-.09-.51.57-.36.9-.36a40.38,40.38,0,0,0,7.61-.64,18.09,18.09,0,0,0,1.93-.47c.64-.2,1,0,1.15.59a22.2,22.2,0,0,1-.13,6.09,1,1,0,0,1-.73.8c-.47.14-.53-.34-.71-.58a4.49,4.49,0,0,0-2.16-1.36c-.75-.27-1.55-.43-2.29-.72-1.43-.57-3.23-.42-4.13-2.16C96.67,81,97.27,81.53,96.85,82.16Zm.59-.14c.18-.31.44,0,.64,0a34.84,34.84,0,0,1,6,2,2.11,2.11,0,0,1,1.21,1c-2.79-.29-5.35-.82-7.52-2.43C97.56,82.5,97.28,82.32,97.44,82Zm6.7,3.59c-3.89.3-6.27-.55-6.66-2.42C99.46,84.65,101.67,85.1,104.14,85.61ZM97.73,85l-.08.12C97.54,85,97.67,85,97.73,85ZM89,47a6.52,6.52,0,0,1-1-2.42c-.08-.39-.2-.78.38-1.09,0,2.4,2.29,4.14,1.83,6.65-.42,2.29-.62,4.61-1.77,6.73.38-1.37.75-2.75,1.13-4.12C90.13,50.75,90.32,48.82,89,47Zm18.55,2.89c-.92-2.59-1.36-5.46-5.08-5.73,3.35.26,6.59-1,10-.13C108.11,43.9,106.76,46,107.54,49.88Zm7.44-3a4.86,4.86,0,0,0-3.66.47c-.64.3-.82.1-.8-.5a1.14,1.14,0,0,1,.79-1.17A3.56,3.56,0,0,1,115,46.87Zm-8.81,2.19,0-.35C106.44,48.78,106.23,48.93,106.17,49.06Zm-2.26-3.8a3.14,3.14,0,0,1,2.19,3.4c-.65-.57-.92-1.43-1.63-2a3.93,3.93,0,0,0-4.8-.37.68.68,0,0,1-.58.12C100.56,44.76,101.76,44.46,103.91,45.26Zm-6.82,2c-.07.2-.21.2-.37.11l.23-.26c.59-1.07,1-2.3,2.7-2.51C98.74,45.59,97.92,46.45,97.09,47.3Zm-1.94-.51c.26-1,.62-2,.82-3A3.53,3.53,0,0,1,95.15,46.79Zm.81.35-.16.07s0-.05,0-.08l.17-.08Zm.1,1c-.52,1.69.34,3.39-.15,5C95.57,51.45,95.21,49.74,96.06,48.12Zm-.07-1c.18-1.25.78-2.11.76-3.11A3.93,3.93,0,0,1,96,47.12Zm.75,6.27a3.39,3.39,0,0,0,1-2.64,6.32,6.32,0,0,1,.72-3.34,18.63,18.63,0,0,1-.18,4.48,2.16,2.16,0,0,1-1.39,1.64c-.11.22-.28.21-.48.13Zm.39-5.5a10.23,10.23,0,0,1-.4,4.31C96.7,50.84,96.16,49.44,97.13,47.89Zm-4.29-6.22c-.1-.05-.3-.06-.18-.23s.21,0,.3.05a25.4,25.4,0,0,0,6.16,2C96.91,43.25,94.66,43.16,92.84,41.67ZM94.4,55.13c-1.52-2.08-1.8-4.76-.53-5.94A21.39,21.39,0,0,0,94.4,55.13Zm-.88-6.46A5.4,5.4,0,0,0,92.21,52c-.61-.71-.24-1.31-.07-1.89a2.39,2.39,0,0,1,.45-.9,9.24,9.24,0,0,0,2.29-5.63A6.18,6.18,0,0,1,93.52,48.67Zm1.11.53c.19,2.26.77,4.5.32,6.78C94.94,53.72,94.19,51.48,94.63,49.2Zm-1.79-5A8.08,8.08,0,0,1,91,48.42a25.42,25.42,0,0,1,.17-4,2.31,2.31,0,0,1,.19-.56.89.89,0,0,1,1-.57C92.89,43.37,92.88,43.82,92.84,44.22Zm-2.62,2.34a4.86,4.86,0,0,1-1.15-2.85c0-1.18.34-1.52,1.57-1.54a2.44,2.44,0,0,1,1.55.47C90.19,43.28,90.59,45,90.22,46.56Zm17.91,1.36c-.17-1.73.64-3.34,3.07-3a1.88,1.88,0,0,0-1.31,2.2c.17.94.63,1.16,1.51.71a4,4,0,0,1,4.64.39l-2,.43a2.4,2.4,0,0,0-2,2,6.94,6.94,0,0,0,0,3.86c.16.06.22.2.12.3s-.21,0-.29-.1A10,10,0,0,1,108.13,47.92Zm24.67,3c1.38.74,1.74,2.34.86,4a2.72,2.72,0,0,1-3.42.84,1.33,1.33,0,0,1-.81-1c-.24-1.18-.53-2.35-.8-3.53-.19-.84.33-1.38,1.67-1.75a.68.68,0,0,1,.64-.13l.45.06a5.59,5.59,0,0,1,1.93.69h-1.78A3.09,3.09,0,0,0,132.8,50.92Zm.89-.14c1.06,0,1.31.32,1.12,1.5Zm-5.07,4.1c-.07,1.18-.56,1.68-1.77,1.82a30.59,30.59,0,0,1-8.39-.42L124,56c2-.09,4-.29,4.22-2.91A3.1,3.1,0,0,1,128.62,54.88Zm-.72-2.83-.23-.25c-1.19-1.39-3-1.34-4.57-1.68a19.53,19.53,0,0,1-5.26-1.54l-.4-.21s0-.06.07-.06.33,0,.39.17c2.7.65,5.45,1,8.18,1.43a2.09,2.09,0,0,1,1.74,1.76A.24.24,0,0,1,127.9,52.05Zm-3.29-1a11.32,11.32,0,0,1,1.42.35c.91.29,1.53.83,1.45,1.84a2.07,2.07,0,0,1-1.85,2.11,53.42,53.42,0,0,1-5.66.37c-1.72-.12-3.43-.2-5.14-.35s-2.32-.77-2.45-2.42c0-.34,0-.67,0-1,0-2.78,2.48-3.45,4.49-2.82A66.82,66.82,0,0,0,124.61,51Zm-14.9,2.58c.83.82,1.73,1.43,1.53,2.85-.4,2.74-.6,5.51-1.12,8.23-.05.28-.15.55-.29,1.08C108.85,61.5,110.44,57.55,109.71,53.58Zm2.39,2.52a6.29,6.29,0,0,1,.46,4.21c-.37,1.74-.79,3.47-1.14,5.21s-.66,3.42-1,5.21C110,69.69,111.39,57.5,112.1,56.1Zm5.24,16.28a44.69,44.69,0,0,1-4.89-.59c-.9-.17-1.39-.56-1.3-1.56a64.67,64.67,0,0,1,1.34-6.79c.26-1.28.54-2.55.78-3.83a10.1,10.1,0,0,0-.45-3.93,32.7,32.7,0,0,0,12.87,1.65c1.25,0,2.65.08,3.44-1.23.1-.16.21-.13.34,0a7.67,7.67,0,0,0,3.08.89,2.15,2.15,0,0,1,1.85,1.77c1,4.22,1.71,8.47,2.29,12.75.13.94-.4,1.42-1.3,1.45s-2.09-.08-3.14-.08C127.28,72.82,122.3,72.78,117.34,72.38Zm15.74-16a4.75,4.75,0,0,0,1.73-3.24A2.11,2.11,0,0,1,133.08,56.39Zm1.53-8.71c-2-1.38-4.45-2-6.52-3.21a17.8,17.8,0,0,1-3-2.25c1.32.11,2,.93,3,1.28a11.18,11.18,0,0,0,3.13.8c1.08.09,2.15.25,3.23.34a17.72,17.72,0,0,1,3.36.31,10.08,10.08,0,0,0-2.5,2.51C135.14,47.73,135,48,134.61,47.68ZM138,45.53c.13-.11.27-.39.44-.19s-.14.26-.28.36c-.64,1.1-1.68,1.94-2.27,3.08C135.76,47.23,137,46.43,138,45.53Zm-1,2.63c.42-.66,1-1.2,1.47-1.83.9-1.29,2.05-1.4,3.47-1a20.54,20.54,0,0,1,4.89,2,5,5,0,0,0,5.92-1.1c-.46-.2-.71.18-1,.34-1.82.91-3.58,1.24-5.38-.13a13.67,13.67,0,0,0-4-1.71,10.05,10.05,0,0,1,4.13.45,7.72,7.72,0,0,0,5.34-.06,10.57,10.57,0,0,1,3.6-.63,1.67,1.67,0,0,1,1.46.62,7.51,7.51,0,0,1,1.75,4.64,1.14,1.14,0,0,1-.9,1.2,54.37,54.37,0,0,1-10.48,2.86,12.48,12.48,0,0,1-9.89-3A1.72,1.72,0,0,1,137,48.16Zm30.39-3.89a1.48,1.48,0,0,1,1.31.91,19.7,19.7,0,0,0-2.52.31c.57.68,1.31.56,1.95.57s.82.19.83.75-.44.47-.8.5l-1.89.11c-.2,0-.47,0-.47.26s.25.29.46.29c.63,0,1.26,0,1.89,0,.38,0,.81-.09.84.48s-.46.48-.8.48a20.5,20.5,0,0,0-7.68,1.21c-.1-.8-.22-1.54-.28-2.29a6.71,6.71,0,0,0-1.17-3.14c-.35-.53-.18-.65.31-.8a5.42,5.42,0,0,1,2.39-.21C163.62,44,165.51,44,167.39,44.27ZM162.88,43a7.18,7.18,0,0,1,3.67.3A7.42,7.42,0,0,1,162.88,43Zm15.69,10.52A19,19,0,0,1,183,55.83a26.91,26.91,0,0,0,3,1.51c-3.28.63-6.24,1.74-9.37,2.24a7.83,7.83,0,0,1-7.55-2.5c-1.17-1.3-2.39-2.57-3.57-3.87a12.13,12.13,0,0,0-2.32-2.14,15.57,15.57,0,0,0,5.15-1.46,1.93,1.93,0,0,1,1.9.23C172.72,51.74,175.68,52.57,178.57,53.56Zm-7.92-4.49c.35.24.71.22.66.62C171,49.65,170.84,49.48,170.65,49.07Zm.69.64c.2-.1.32,0,.42.16C171.53,50.05,171.44,49.88,171.34,49.71Zm.44.17.51.29C171.88,50.24,171.73,50.16,171.78,49.88Zm1.58,1.27c-.08-.09-.19-.18-.06-.3C173.38,50.94,173.53,51,173.36,51.15Zm.26,0,0,.12-.27-.08Zm-.84-.39c.2-.09.35.05.51.12A.42.42,0,0,1,172.78,50.73Zm0,0a.2.2,0,0,1-.11-.32h0C172.68,50.51,172.88,50.58,172.77,50.72Zm-.33-.22,0-.09h.24Zm19.31-8.81c.33.35.08.41-.16.56-2.15,1.34-2.15,1.34-3.08,2.79.28-2.28.2-4.57.4-6.85A9.71,9.71,0,0,0,189,37c0-.27.2-.73-.24-.74s-.33.46-.35.74c-.17,2.67-.31,5.34-.67,8a5.19,5.19,0,0,1-.07.7c-.09.33.1.87-.34.94s-.78-.39-1.13-.65,0-.57.14-.83a7.92,7.92,0,0,0,.74-3.51c.08-2,.23-4,.47-5.91.15-1.2.69-2,1.33-1.88,1,.25.93,1.17.87,1.9A7.48,7.48,0,0,0,191.75,41.69Zm7-3.57a5.37,5.37,0,0,0-5.27,2.47c0-1.41.05-2.91,1.49-3.59S197.52,37.54,198.75,38.12Zm-2.66-2.72c.35.16.7.19.69.62A.76.76,0,0,1,196.09,35.4Zm1.37,1.14,0-.21.15.23Zm.23.07a.57.57,0,0,1,.08.13l-.13,0Zm-.47-.26s.06-.13.1-.2c0,.12.06.17.18.17C197.41,36.4,197.32,36.52,197.22,36.35ZM196.8,36c.22-.21.33.16.52.11h0C197.06,36.42,196.93,36.23,196.8,36Zm8,5.93a3.29,3.29,0,0,1,.82,1.92c.23,1.28-.25,1.78-1.8,1.75a18,18,0,0,1-4.33-1,49.09,49.09,0,0,1-4.94-2.42c-.82-.4-.78-.93-.36-1.55a4.12,4.12,0,0,1,3.77-2A10,10,0,0,1,204.76,42ZM200,36.63c.14,0,.23,0,.19.19C200,36.83,199.93,36.78,200,36.63Zm1,.76-.21-.14c-.17.06-.32-.09-.47-.18h0l-.12-.22a.47.47,0,0,1,.19.08.07.07,0,0,1,0,.06c.17-.07.32.18.49.18h0Zm.05.06c.13,0,.18.09.12.22Zm.16.25h.16l0,0ZM210.45,50c-.17-1.62-.87-2.2-2.57-2a12.67,12.67,0,0,1-5.9-.34,1.53,1.53,0,0,1-.66-.39,4.5,4.5,0,0,1,.63,0,26.4,26.4,0,0,0,6,0c2.25-.22,3,.5,3,2.69a4,4,0,0,1-.58,2.76A6.58,6.58,0,0,0,210.45,50Zm-.32,3.15-.37.65c-.15.19-.16.52-.59.54,0-.34.23-.5.44-.68a.81.81,0,0,1,.42-.61c0-.09,0-.28.2-.16S210.2,53.11,210.13,53.19ZM207.44,38A29.36,29.36,0,0,1,204,29.89a18.37,18.37,0,0,0-3.8-7.4,3.13,3.13,0,0,1,2.65,2.06,38.84,38.84,0,0,1,1.36,3.79,44.33,44.33,0,0,0,2.64,5.89A5.85,5.85,0,0,1,207.44,38ZM208,41c-.4.1-.77.67-1.17.08-.09-.13-.21-.34,0-.42A1,1,0,0,1,208,41ZM203.66,30.7a19.58,19.58,0,0,0,2.47,6,3.18,3.18,0,0,1,.39.81.48.48,0,0,1-.25.6c-.3.13-.3-.2-.42-.32a18.6,18.6,0,0,1-5-6.24c-1.14-2.58-1.14-5.26-.86-8.19A15.69,15.69,0,0,1,203.66,30.7Zm.45,6.56c.15-.1.24,0,.3.13l.22.19c.16.11.23.23.1.4l-.28-.25-.29-.23C204.14,37.42,204.08,37.28,204.11,37.26Zm.12,1.84.09,0s-.08,0-.11,0a.47.47,0,0,1-.16,0Zm2.32,3.58a14.87,14.87,0,0,1,.27,2,1.63,1.63,0,0,1-1.62,1.95,12.17,12.17,0,0,1-8.13-2c-.07,0-.09-.16-.15-.25.39-.19.61.11.86.24a15,15,0,0,0,6.55,1.55c1.5,0,2.08-.65,1.88-2.08a5.51,5.51,0,0,0-3-4C205.33,40.28,206.2,41,206.55,42.68Zm-3-3.71c-.17,0-.09-.12-.1-.19l.19.16Zm-.31-1-.4-.28a.94.94,0,0,1-.68-.82l.89.63.33.28.12.18Zm-.6.55c-.17,0-.1-.07-.08-.13Zm-.11-.16a.48.48,0,0,1-.5-.09A.56.56,0,0,1,202.51,38.37Zm-.51-.1a.22.22,0,0,1-.09-.33C202,38,202.12,38.14,202,38.27Zm-.29-.29s0,0,0,0h.2C201.86,38,201.8,38.06,201.71,38Zm-5.12,6.29a.83.83,0,0,1-.16-.09.4.4,0,0,1,.15-.09s.15,0,.15.07S196.69,44.3,196.59,44.27Zm-3-1.24A34,34,0,0,1,197.84,46a12.11,12.11,0,0,0,9.88,2.58c1.35-.24,2,.25,2.2,1.53a3.67,3.67,0,0,1-.49,2.8c-2,2.85-3.77,3.77-6.77,3.32A22.7,22.7,0,0,1,195.52,54a3.33,3.33,0,0,1-1.74-2.26,5.83,5.83,0,0,0-5-4.69,7.11,7.11,0,0,1,3.6-4.14A1.15,1.15,0,0,1,193.6,43ZM209.13,54.4c-.13,1.19-.88,1.79-2.38,1.89l1.28-1C208.41,55,208.64,54.58,209.13,54.4ZM192,54.87c.43-.75.78-1.36,1.15-2C193.83,53.8,193.65,54.14,192,54.87Zm.15.12-.07.13-.07-.06c0-.05,0-.1.07-.14Zm-20,7.84a9.64,9.64,0,0,1-2.95-4l-.1-.18.24,0A17.46,17.46,0,0,0,174.25,61a10.07,10.07,0,0,0,5.17-.17c2.48-.71,4.94-1.48,7.42-2.14,1.65-.44,2.1-.21,2.49,1.37.92,3.85,1.87,7.7,1.38,11.72-.21,1.73-.73,2.38-2.55,2.64a45.6,45.6,0,0,1-8.82.11A106.43,106.43,0,0,1,168.53,73c-.72-.11-1-.45-.95-1.16.2-2.7.29-5.42.64-8.11a2.25,2.25,0,0,1,.52-1.29c.79-.89,1.07-.92,2-.15l4.21,3.63c.23.19.43.36.76.16A22.49,22.49,0,0,0,172.14,62.83Zm2.28-2.46c4.17-.07,7.76-1.94,11.68-2.22C181.4,60.17,177.12,61,174.42,60.37Zm16.08,2a17.19,17.19,0,0,0-.82-3c-.25-.71-.5-1.4-1.39-1.67,2.1-.39,2.06-.38,2.4,1.59a76.61,76.61,0,0,1,.94,7.86c0,.13.05.26-.21.4C191.11,65.75,190.8,64,190.5,62.32Zm-.05-6.45a3.06,3.06,0,0,1-2.8,1,8.34,8.34,0,0,1-3.8-1.3c.63-.23,1.16.09,1.71.21,3.58.79,6.2-1.29,6-4.8A3.24,3.24,0,0,0,190,48.34a3.07,3.07,0,0,1,2.64,3.6A10.13,10.13,0,0,1,190.45,55.87Zm2.35.48c.06-1.33.65-1.63,1.75-.91a19.72,19.72,0,0,0,6.93,2.78,21.41,21.41,0,0,0-5,.68,5.75,5.75,0,0,0-.86.35,1.24,1.24,0,0,0-.7,1.34c0,.57.5.75,1,.85l1.12.21a3.51,3.51,0,0,1-3,1.27.91.91,0,0,1-.67-.8A23,23,0,0,1,192.8,56.35ZM197,61c-.57.06-1.24.14-1.42-.5s.56-.93,1.09-1.09a40,40,0,0,1,4.89-.72A7.46,7.46,0,0,1,197,61Zm-2.55-6.83A25.51,25.51,0,0,0,204.76,57C201.65,58.19,196.48,56.78,194.49,54.15Zm-7.57-6.75c-2.64-.18-7-2.89-10-6.26C177.64,41.08,186.25,46.43,186.92,47.4Zm-2.44.07a11.41,11.41,0,0,0,3.07.57c2.42.32,3.74,1.91,3.4,4.09-.36,2.36-2,3.57-4.5,3.25a11.48,11.48,0,0,1-3.41-1A54.32,54.32,0,0,1,175,50a3.51,3.51,0,0,1-1.7-2.51,7.21,7.21,0,0,0,5.81,1.66,6.88,6.88,0,0,0,3-1.35A2.17,2.17,0,0,1,184.48,47.47ZM177,52.25h-.09s0,0,0-.06a.12.12,0,0,1,.08,0C177.06,52.19,177.06,52.23,177,52.25Zm-.47-.19h-.1a.16.16,0,0,1,0-.1c-.1,0-.21,0-.31-.08s0-.09,0-.13l.36.13h0l0,0Zm-.92-.51a.78.78,0,0,1-.24-.16s0,0,0,0a.75.75,0,0,1-.36-.16c-.12-.09-.22-.18,0-.28,0,0,.12.1.18.16s.25,0,.2.21c0,0,.06,0,.11,0a1.92,1.92,0,0,1,.27.11l-.23,0C175.63,51.5,175.6,51.55,175.59,51.55Zm-7.69,5.29-.14-.07.13,0Zm-.18-.09-.28-.16h0C167.61,56.53,167.76,56.51,167.72,56.75Zm-.28-.18.05-.21.08,0Zm-.17-.48-.09,0,0-.15Zm-1.84-1.84c-1.72-.94-3.23-2.24-5.44-2.58C162,50.67,163.79,51.9,165.43,54.25ZM162,50.37a12.21,12.21,0,0,1,4.15-.77A7.75,7.75,0,0,1,162,50.37Zm2.74,4.7c-2-1.14-4.38-1-6.45-2.22C159.88,51.84,164,53.25,164.72,55.07Zm.08-.15c.18-.11.2.07.26.16l.22.2.2.21.2.21.21.21.21.2.32.3c.16.12.32.24.26.46,0,0-.11.06-.16.05-.2,0-.24-.2-.26-.37s-.22-.21-.32-.32l-.2-.2-.24-.2-.21-.21-.22-.2-.24-.21C164.73,55.12,164.65,55,164.8,54.92Zm1.45.23L166,55l-.21-.2-.22-.19c-.1-.06-.28-.09-.17-.26s.22-.08.31,0l.24.23c.06.07.13.13.2.2l.22.24a2.14,2.14,0,0,1,.72.91C166.62,55.89,166.52,55.43,166.25,55.15Zm-6.65-5.09c-.52-2-1-4-2.58-5.65a1.16,1.16,0,0,1,1.51.59A7.66,7.66,0,0,1,159.6,50.06Zm-.81,1.17c-2.23,2.4-12.67,4.37-16.31,3.07C148.31,55.33,153.39,52.86,158.79,51.23Zm-10.52,4.25a53.42,53.42,0,0,0,7.9-2,2.76,2.76,0,0,1,1.94,0,33.19,33.19,0,0,0,4.4,1.3,5.19,5.19,0,0,1,3.18,2.28,7.13,7.13,0,0,0-3,1.53,9.61,9.61,0,0,1-4.11,1.61,48.61,48.61,0,0,1-9,1.52,11.32,11.32,0,0,1-4.44-.59A5.65,5.65,0,0,1,142.34,59c-.88-1.29-.55-2.21,1-2.67A36.09,36.09,0,0,1,148.27,55.48Zm15.16,3.91c.82-.06,1.07.22,1.16.88a45,45,0,0,1,.39,5.31c.05,1.8.23,3.59.42,5.39a30.09,30.09,0,0,1-1-7.12,8.09,8.09,0,0,0-.49-2.75c-.43-1-.77-1.09-1.84-.76a45.85,45.85,0,0,1-11.82,2.17q5.58-.93,11.08-2.38A9.47,9.47,0,0,1,163.43,59.39Zm-15.68,3a30.26,30.26,0,0,0-4.37,1,1,1,0,0,1-1.23-.44,7.47,7.47,0,0,1-1.09-5C142.34,60.84,144.76,62,147.75,62.42ZM141.4,63.7c-1.13-1.31-1.77-4-1.28-5.16A23.07,23.07,0,0,0,141.4,63.7Zm-1-.31c.12.24.48.57.12.78s-.7-.09-.86-.4a5.39,5.39,0,0,1-.47-4.69A10.25,10.25,0,0,0,140.39,63.39Zm27.13-5.54a7.29,7.29,0,0,1,1.88,2.79c.11.27.24.54-.18.75-1.33.66-1.57,1.87-1.68,3.13q-.3,3.41-.61,6.79a.74.74,0,0,1-.55.8C167.31,67.35,166,62.58,167.52,57.85Zm11.41,21.82c.29.22.07.53.13.79.67,3.2.13,6.4,0,9.6a31,31,0,0,1-1.58,7.56,19.06,19.06,0,0,0-.15,9.72A74.63,74.63,0,0,1,179,118.27a2.16,2.16,0,0,1-2,2.57,2.76,2.76,0,0,1-3.14-1.92,45.22,45.22,0,0,1-1.2-7.82,170.75,170.75,0,0,0-2.47-18.71,8.15,8.15,0,0,1-.22-2.78c.06-.31,0-.75.43-.84s.51.29.71.53c.77.9,1.55,1.81,2.35,2.69a1.12,1.12,0,0,0,1,.55c-.6-1.24-1.8-2-2.38-3.14-.05-.09-.2-.18,0-.27,0,0,.13.08.2.12a6.78,6.78,0,0,0,2.35,1,2.61,2.61,0,0,0,3.09-1.45,8,8,0,0,0,.56-5.65c-.1-.46-.17-.92-.29-1.38-.2-.77.08-1.22.9-1.36A1.06,1.06,0,0,0,178.93,79.67Zm9,18.45c.9,5.19.17,10.28-.92,15.35-.55,2.55-1.05,5.08.2,7.58.23.46,0,.73-.48.76a14.29,14.29,0,0,1-5-.19c-.58-.17-1.07-.41-1-1.18.4-3.22-.11-6.42-.45-9.61a22.66,22.66,0,0,1,.14-5,36.18,36.18,0,0,0-.38-9.91,6.77,6.77,0,0,1,.36-3.54q1.59-4,3.17-8.07a12.57,12.57,0,0,0,.47-1.43c.42-1.62,0-2.22-1.74-2.58a8.42,8.42,0,0,1,2.78-1.62,36.52,36.52,0,0,0,3.65-1.53c1.31-.66,1.88-.33,1.81,1.13a59.44,59.44,0,0,1-.89,7.38c-.4,2.27-.91,4.53-1.41,6.79A14.33,14.33,0,0,0,188,98.12Zm-7.44-16.54c-.08.07-.14.26-.27.15s-.05-.24.1-.31a5.21,5.21,0,0,1,2.72-3,13.12,13.12,0,0,1,4.36-1.31C184.9,78.3,182.06,79,180.51,81.58Zm-.41-.87a7,7,0,0,1-.58-3c0-.33.17-.47.51-.5l5.27-.44C183.15,77.79,180.93,78.3,180.1,80.71Zm0,2.81c.09-1.27,1-1.91,2-2.56.52-.35,1.56.34,1.53,1a5.56,5.56,0,0,1-.33,1.66c-1.11,2.9-2.26,5.8-3.4,8.69a4.11,4.11,0,0,1-.37.47C180,89.59,179.89,86.55,180.11,83.52Zm-.41,22.93c-.71-1.25-.82-4.14-.3-9.36C180.28,100.36,180,103.4,179.7,106.45Zm-1.1,14.16h0l.2,0-.05.08,0,0a.11.11,0,0,1,0,.07s-.1.06-.16.08a2.21,2.21,0,0,0,.05-.25Zm-.23.5a3.54,3.54,0,0,1-5.13.5c-.6-.7-.08-1.23.33-1.85C175,121.38,175.35,121.48,178.37,121.11Zm-4.08-43.87c-1.43,0-2.87-.07-4.3,0-.76,0-1-.22-1-.9a11.55,11.55,0,0,0-.13-1.5c1.82.54,3.6,1.11,5.41,1.58a14.09,14.09,0,0,0,3.08.53c1.06,0,1.36.58,1.44,1.43,0,.4,0,.81.07,1.22C178.15,77.42,176.29,77.23,174.29,77.24Zm-4.36.57c.87,0,1.75,0,2.73,0,1.14.1,2.4,0,3.66.17a2.42,2.42,0,0,1,1.58,1c.25.33.35.67-.08,1-.75.49-.69,1.16-.49,1.88a10.57,10.57,0,0,1,.33,5.35,7,7,0,0,1-.48,1.42,2,2,0,0,1-2.59,1.1,15,15,0,0,1-3.35-1.62c-.58-.33-.67-.9-.89-1.4a24.28,24.28,0,0,1-1.78-7.39C168.43,78,168.61,77.84,169.93,77.81Zm7.78,28.52c-.92-3.85,0-7.45,1.1-11.27a5.17,5.17,0,0,1-.09,2.44,27.7,27.7,0,0,0,.45,10.46,59.11,59.11,0,0,1,1,10.28,2.15,2.15,0,0,1-.49,1.87A75.66,75.66,0,0,0,177.71,106.33ZM180.27,123c.31-.13.44.23.63.4.45.43.22.91.13,1.39s-.13,1-.19,1.46l-.14,0c-.2-.83-.39-1.67-.61-2.5C180,123.37,180,123.06,180.27,123Zm.28-1a15.4,15.4,0,0,0,7.42.14c-.14.5-.59.48-.91.53a24.37,24.37,0,0,1-5.12.27A1.56,1.56,0,0,1,180.55,122Zm6.15,2.29a9,9,0,0,1-4.63-.42c1.72-.37,3.48-.09,5.19-.54C187.31,123.82,187.08,124.15,186.7,124.24Zm-4.14.9c0-.09.24-.16.36-.16,1.23.06,2.45.12,3.67.2.43,0,.64.37.9.65A9.29,9.29,0,0,1,189,128.4a14.28,14.28,0,0,1-5,.67c-.75,0-1.63-.07-1.91-.94A3.81,3.81,0,0,1,182.56,125.14Zm5.93,1c-.2-.68-1.22-1.17-.49-2.13A2.43,2.43,0,0,1,188.49,126.13Zm3-51.95c-.12.53-.71.74-1.2.87-5.9,1.52-11.81,2.24-17.76.26l-3.27-1.06a1.65,1.65,0,0,1-1-.62,18,18,0,0,1,3.44.47,64.58,64.58,0,0,0,15.77,1c2.91-.2,3.83-1.11,3.91-3.87,0-.47,0-.94,0-1.41A8.26,8.26,0,0,1,191.47,74.18Zm-.24-15.7a2.29,2.29,0,0,1,.89-2.43,30.15,30.15,0,0,0,.65,5.87c.31,1.35.36,1.42,1.93,1.76a12.69,12.69,0,0,0-2.42,2.38c-.12-1-.21-2-.35-3C191.71,61.52,191.42,60,191.23,58.48Zm1.26,11.18a11.14,11.14,0,0,1,.14,2.37A5.17,5.17,0,0,1,192.49,69.66Zm15.4,8.9.11-.13.05.07Zm-.23-14.23c-1.15,1-2.81,1-4,2a12,12,0,0,1-4,2.28C202.45,65.74,204.84,64.46,207.66,64.33Zm-1.56-5.91a9,9,0,0,1,1.81,4.33C207.4,61.25,206.65,59.85,206.1,58.42Zm.57-.36c-.27-.39-.21-.54.15-.76a5.84,5.84,0,0,1,3.15-.91c1,.13,2.14.23,3.28.47a2.22,2.22,0,0,1,1.18,3.43c-1.13,2-3.15,2.37-5.22,2.68-.46.07-.52-.33-.58-.58A12.48,12.48,0,0,0,206.67,58.06ZM211.54,56c1.52-.44,3,.12,3.34,1.25C214,56.18,212.58,56.53,211.54,56Zm3.18-.31a7.07,7.07,0,0,0-4.76-.27c.87-1.42,2.35-2,3.28-3.2A6.93,6.93,0,0,1,214.72,55.7Zm-1.6-4A.27.27,0,0,1,213,52c-.56.37-1.13.73-1.86,1.19a8.45,8.45,0,0,0,.55-4.33A10.37,10.37,0,0,1,213.12,51.7Zm-2.24-10.08-.12,0C210.86,41.46,210.86,41.56,210.88,41.62Zm.09.59a3.07,3.07,0,0,1-.05-.53c1.1,1.12,1.41,4.44.51,5.5a.42.42,0,0,1-.63.11c-.17-.12-.34-.23-.15-.47C211.78,45.35,211.33,43.78,211,42.21ZM210.72,45c-.05,1.07-.95,1.28-1.77,1.44a9.85,9.85,0,0,1-1.89,0,7.43,7.43,0,0,0,.15-3.82c-.09-.6.14-.68.6-.73l1.45-.16a.73.73,0,0,1,.83.44A5.29,5.29,0,0,1,210.72,45ZM206,25.8c.19-.09.33,0,.42.2.3.56.63,1.11.88,1.7.84,2,2.12,3.83,2.83,5.9a9.2,9.2,0,0,1,.38,3,19.47,19.47,0,0,1-.42,3.31c-.06.37-.2.56-.6.5s-.3-.4-.25-.62a15.94,15.94,0,0,1,.45-1.64,6.64,6.64,0,0,0-1-6.1,27.14,27.14,0,0,1-2.7-5.94C205.87,26,205.85,25.86,206,25.8Zm-6.42-4.24c0-.28.3-.22.49-.25A5.17,5.17,0,0,1,205,24.38a16,16,0,0,1,.53,2.25,14.89,14.89,0,0,0,2.38,5.2,7.34,7.34,0,0,1,.76,7.63c-.06.14-.08.34-.4.39a2.19,2.19,0,0,1-.14-1.39,8.75,8.75,0,0,0-1.19-5.31c-1.54-2.69-2.26-5.67-3.42-8.5-.63-1.51-1.55-2.8-3.55-2.78C199.73,21.88,199.53,21.85,199.56,21.56Zm-.41,1.63a5.69,5.69,0,0,1,.14,1.69,15,15,0,0,0,4.33,11.67c.14.15.28.3.41.46a2,2,0,0,1,.07.38,4.49,4.49,0,0,1-.58-.26c-4-3.15-6.67-6.91-5.88-12.19a3.55,3.55,0,0,1,.85-1.9C198.8,22.69,199,22.64,199.15,23.19Zm-.89-1.05C196,27,196.88,31.56,200.9,35.61a11.22,11.22,0,0,1,1.26,1.4,5.11,5.11,0,0,1-2.2-1.52c-2.65-2.56-4.43-5.49-4.4-9.22a4.63,4.63,0,0,1,1.19-3.33A2,2,0,0,1,198.26,22.14ZM194,23.27c-.08.17-.12,0-.18,0Zm-.49.49.09,0-.12.11Zm-.07.2-.12.17s0-.06,0-.08A.11.11,0,0,1,193.42,24Zm-2.35,2.9c-.49,1.07,0,2.08.15,3.12A3,3,0,0,1,191.07,26.86Zm.41,3.62c-.15.15-.13-.05-.16-.1s0-.1.06-.16.12.05.13.08A.19.19,0,0,1,191.48,30.48Zm1.68-6.05c-.85,2.59-.24,5.06.74,7.49C191.21,29.79,191,27.54,193.16,24.43Zm1.63,7.16a7.73,7.73,0,0,1-1.33-5.45A4.35,4.35,0,0,1,196,22.51c-2.32,5.19-.31,9.39,3.11,13.28l.2.21.21.2.21.2c.13,0,.22.07.18.22s-.21,0-.28-.12l-.26-.17-.25-.21A.2.2,0,0,1,199,36,18.63,18.63,0,0,1,194.79,31.59Zm.92,4.56,0,.06h.06c.09,0,.23,0,.19.14s-.16.06-.25.08h0v0h0c0,.17-.13.12-.23.11h0c-.75-.15-1.1,0-1.65.7a6.16,6.16,0,0,0-1.07,3.48,4.49,4.49,0,0,1-.69-4.4A2.35,2.35,0,0,1,195.71,36.15Zm-11.43-5.21c-.18-.62,0-.74.61-.71a9.55,9.55,0,0,1,5.93,1.94c1,.85,2.15,1.6,3.41,2.53-3.43.33-3.14,2.66-3.1,5a5,5,0,0,1-.74-2.83,11.29,11.29,0,0,0-.08-2.1c-.15-.81-.61-1.51-1.58-1.47a1.64,1.64,0,0,0-1.6,1.48c-.21,1.22-.34,2.45-.45,3.69s-.16,2.67-.26,4a8,8,0,0,1-.19,1.29c-.37,1.42-.66,1.54-2,.81s-2.89-1.64-4.32-2.48c-.27-.16-.67-.22-.71-.82a.48.48,0,0,1-.07.15c-.2.25-.44-.11-.63-.27l-.4-.26c.23-.1.44-.13.61.09s.5.1.49.27a3.62,3.62,0,0,0,3.3.29,3.89,3.89,0,0,0,2.22-2c.85-2.07,1.54-4.17.94-6.44,0-.12,0-.27,0-.4,0-.29.47-.72,0-.86s-.48.48-.57.76a6,6,0,0,1-4.56,4.27,5,5,0,0,1-2.77-.19,9.06,9.06,0,0,1-3.38-1.77.11.11,0,0,1-.1-.11c-.42.08-.4-.31-.58-.49l-.19-.2-.2-.2-.23-.2-.21-.2-.23-.21c-.08-.08-.17-.16-.1-.24-.2.1-.28-.09-.37-.25.21-.1.34,0,.44.19h0l0,0,0,0,.2.19.21.2.22.2.21.2.22.19.22.19.44.29.43.29a19.28,19.28,0,0,0,2.7,1.09,5.66,5.66,0,0,0,5.78-1.42A3.2,3.2,0,0,0,184.28,30.94Zm-11,4.37-.16-.16-.25-.27a.35.35,0,0,1,.45,0l.21.2a16.11,16.11,0,0,0,4.13,2.11c2.91.8,5.41-.2,7.39-3a8.72,8.72,0,0,1-1.48,6A3,3,0,0,1,180,41,14.15,14.15,0,0,1,173.28,35.31Zm5.66.24c-2.73-.23-4.7-1.73-6.56-3.44a6,6,0,0,1-.79-.81c-.2-.26-.69-.51-.31-.92s.8-.8,1.45-.47c.49.25,1,.53,1.43.82a12.71,12.71,0,0,0,3.75,1.74,4.24,4.24,0,0,0,4.26-.92c.36-.35.67-.75,1.14-1.27C184.34,33.27,182,35.81,178.94,35.55Zm-6.77-2.88,0,.12L172,32.7Zm10.92-2.94c-2.33,2.74-3.38,2.95-6.7,1.66A23,23,0,0,1,173,29.44a13.62,13.62,0,0,1,5.1.73C179.74,30.57,181.33,29.82,183.09,29.73Zm-6.21-.39a10.8,10.8,0,0,1,4.85,0A8,8,0,0,1,176.88,29.34Zm2.44-.92c-2.06,0-4.12-.11-6.19-.07-1.09,0-1.22-.87-1.35-1.61a13.44,13.44,0,0,0-.85-3,1.71,1.71,0,0,0-1.64-1.19c-.21,0-.36,0-.49-.22-1.46-2.84,1.36-8.11,5-8.86a8,8,0,0,0-2.78,5,7.18,7.18,0,0,0,.62,3.72,6.53,6.53,0,0,1,.57,3.51c-.18,1.61.28,2.12,1.94,2.37a19.76,19.76,0,0,0,4.92,0,4.41,4.41,0,0,0,3.49-2.46c.2-.36.29-.81.72-1.07A4,4,0,0,1,179.32,28.42ZM171,27.14a6.11,6.11,0,0,1-.16.85,3,3,0,0,1-1-1.87c-.21-.74-.37-1.49-.54-2.24,0-.21-.21-.49.07-.61s.48.08.63.27A5.34,5.34,0,0,1,171,27.14Zm11.8-11.82a7,7,0,0,1,1.29,7.23c-.19-4.63-2.22-8-7-9.6A5.75,5.75,0,0,1,182.78,15.32ZM177,13.61a8.38,8.38,0,0,1,6.31,8.85,5.6,5.6,0,0,1-5.36,5.17,15.93,15.93,0,0,1-3.45-.08c-1.55-.2-1.79-.49-1.68-1.95,0-.16,0-.33.06-.7a4.06,4.06,0,0,0-.44-2.24,8.24,8.24,0,0,1-.86-3.58,6.44,6.44,0,0,1,3.12-5.39A2.53,2.53,0,0,1,177,13.61Zm-7.2,15a14.34,14.34,0,0,1-2.7-6.67,8.29,8.29,0,0,1,2.06-7,10,10,0,0,1,4.63-2.62.62.62,0,0,1,.7.09c-.75.36-1.5.69-2.21,1.08a7.55,7.55,0,0,0-4.19,7.81,20.84,20.84,0,0,0,1.52,5.82,3.53,3.53,0,0,0,.75,1.19c.16.17.63.32.27.59S170,29,169.76,28.64Zm1.77,5.59a9.41,9.41,0,0,1,1.58,2.48,14.66,14.66,0,0,0,5.25,6.48c1.47,1.12,2.89,2.3,4.36,3.48a7.32,7.32,0,0,1-4,2,5.66,5.66,0,0,1-6.34-4.1c-.32-1.06-.56-2.14-.84-3.21a7.51,7.51,0,0,0-2.64-4.22,3.63,3.63,0,0,1-1.68-2.67,1.17,1.17,0,0,1,1.07-1.35A2.83,2.83,0,0,1,171.53,34.23Zm-1.36-2.32c0,.08.06.21,0,.22s-.12-.05-.15-.12l-1.35-1C169.87,30.41,169.9,31.33,170.17,31.91Zm-.89.4c-1.82.24-2.09.44-2.87,2.16-.61-1-1.25-1.92-2.66-1.86A4.15,4.15,0,0,1,169.28,32.31Zm-4.07,1.55c.91,1,1.8,2.11,2.69,3.17a9.19,9.19,0,0,1,3.54,6.13c.33,1.7,1.11,3.31,1.24,5.06,0,.59.5.93.84,1.34s.68.47.74,1.14a7.22,7.22,0,0,1-3.86-3.53A11,11,0,0,0,168.76,44a.48.48,0,0,1-.09-.56c1-2.16.38-4-1.11-5.72a2.3,2.3,0,0,1-.23-.44c-1.17-1.31-2-2.91-3.61-3.91A1.21,1.21,0,0,1,165.21,33.86Zm-10.12,0c.13,0,.34,0,.4.06.95,1.16,2,.56,3.07.21a11.79,11.79,0,0,1,3.74-.38,2.89,2.89,0,0,1,1.89.76,19.88,19.88,0,0,1,4,5.22,3.24,3.24,0,0,1,.36,1.46c0,1.45-.31,1.7-1.68,1.35a29.24,29.24,0,0,0-6-.48,17.56,17.56,0,0,1-8.09-2.2,6.12,6.12,0,0,1-3-4.15A1.36,1.36,0,0,1,151,34,11.25,11.25,0,0,1,155.09,33.84Zm1.8,8.1c-1.81.26-4.84-.68-5.93-2.07-.3-.37-.74-.7-.6-1.26C152,40.56,154.36,41.4,156.89,41.94Zm1.18-10A5.1,5.1,0,0,0,160,30.52C159.74,31.66,159.16,32.13,158.07,32Zm3.49-4.36a7,7,0,0,1-2.76,2.95l-.17.13c-.16.1-.32.18-.49,0l.31-.15.21-.21a13.18,13.18,0,0,0,3.92-7.18c.78-4.56-1.4-8.28-5.92-9.81-.25-.08-.56-.06-.73-.33a5,5,0,0,1,4.78,1.75,9.89,9.89,0,0,1,2.14,8.94A20.59,20.59,0,0,1,161.56,27.62Zm1.5-12.26c1.78,3.33,1.58,6.78.58,10.26a6.17,6.17,0,0,1-1.54,3.09c.88-2.71,1.82-5.41,1.57-8.3a9.54,9.54,0,0,0-4.06-7.36A4.28,4.28,0,0,1,163.06,15.36Zm-17.69,6c-.92-3.05.35-5.42,2.53-7.4a9.44,9.44,0,0,1,9.29-2.07C150.29,11.68,146.45,14.92,145.37,21.34Zm1.08,1.93c-.75-1.08-.29-4.33.94-6.24,1.33-2.08,3-3.72,5.78-3.88C149.05,15.41,146.21,18.41,146.45,23.27Zm.78,5.65a7.6,7.6,0,0,1-1.56-3.7c0-.18-.07-.43.21-.49a.56.56,0,0,1,.59.33A6.3,6.3,0,0,1,147.23,28.92Zm.27-4.26a3.74,3.74,0,0,1-.5-2.32c0-4.5,3.82-7.77,6.77-8.55,2.55-.68,4.65.62,6.34,2.3a8.11,8.11,0,0,1,2,5.45A12.36,12.36,0,0,1,158.22,30a2.41,2.41,0,0,1-1.67.74,8.07,8.07,0,0,1-5.27-1.63A22.92,22.92,0,0,1,147.5,24.66Zm7.09,6.46c-1.69-.12-3.35-.29-4.33-1.9-.13-.07-.23-.15-.1-.28s.16.06.24.1A7.94,7.94,0,0,0,154.59,31.12Zm-5.07-3.24h0l.26.4.12.28c.13.05.26.1.1.25l-.19-.16-.16-.25A.32.32,0,0,1,149.52,27.88Zm-.13.1-.07-.11h.18Zm-.4,1c-.11-.12-.42-.21-.2-.4s.27.13.36.27a15.16,15.16,0,0,0,2.38,2.56A3.32,3.32,0,0,1,149,29Zm-.28,3.45h.09l-.1.17A.81.81,0,0,1,148.71,32.47Zm2,1.06c-.81,0-1.05.55-1.35,1a1.79,1.79,0,0,0-.13,1.64c.15.46.33.92.5,1.38a3.91,3.91,0,0,1-1.46-2.89C148.15,33.29,149.1,32.82,150.69,33.53Zm-2.53-.65s0,.06,0,.08a.12.12,0,0,1-.19,0ZM148,33c.11.31-.2.41-.37.44s-.09-.14-.08-.28S147.83,33,148,33Zm-.07-.75s0,.1,0,.11-.23.14-.33,0Zm-1.5.43c.24-.44.74-.25,1.13-.32h0c.21.29-.33.37-.21.64-.33,0-.35.33-.51.61C146.66,33.28,146.2,33.09,146.41,32.69ZM147.6,36a.36.36,0,0,1,.08.57l-.25-.41a8.26,8.26,0,0,1-1.79-2.61A5.64,5.64,0,0,1,147.6,36Zm-11.61-1c.09-.23.22-.36.45-.22,1.15.68,2.13,0,3.17-.32l1-.29c.44-.34,1-.22,1.47-.31h0l-1.44.57a21.23,21.23,0,0,1-5.26,1.94C135.61,35.77,135.82,35.36,136,34.94Zm-1-1.39c.17.11.24.29.1.41s-.21-.1-.29-.19c-3-3.75-7.41-5-12-6C127.57,28.4,132.28,29,135,33.55Zm-.2,1.68c-.31.75-1.4.72-2.23.79a4.41,4.41,0,0,1-2.94-.5c-2.75-1.82-4.65-4.38-6.64-6.89,4,.83,7.88,1.65,10.69,4.71C134.2,33.91,135.11,34.49,134.8,35.23Zm-5.65-7.36c-.19.44-.56.34-.88.26a26.65,26.65,0,0,1-2.55-.78,1,1,0,0,1,.87-.11v0c1.07.37,1.77-.32,2.52-.83a4.31,4.31,0,0,0,.78-.91l.27.18C129.82,26.4,129.48,27.13,129.15,27.87Zm-2.34-1.07s.08.06.11.1l-.34.3C126.51,27,126.61,26.87,126.81,26.8Zm.34-.2a2.26,2.26,0,0,1,.28-.25c.08.07.26,0,.14.19a.81.81,0,0,1-.3.22S127,26.75,127.15,26.6Zm.61-.27c.61-.85,1.46-1.52,2-2.4,1.38-3.82.22-7.09-2.34-10.07a13.91,13.91,0,0,0-2.82-2.37l-1.47-.57a2.61,2.61,0,0,1,1.5.22c5.45,1,8.08,5.22,6.57,10.6a6.91,6.91,0,0,1-.87,2.23A5.63,5.63,0,0,1,127.76,26.33Zm1.9-5.46c-.46,2.42-4.37,5.12-6.84,4.7s-3.52-2.12-4.3-4.1a10.56,10.56,0,0,1-.6-3.92,7.48,7.48,0,0,1,3-5.79,2.16,2.16,0,0,1,2.23-.36c3.5,1.17,6.73,5.66,6.58,9.17C129.67,20.67,129.68,20.77,129.66,20.87Zm1-9.49.19.27a.34.34,0,0,1-.44-.07,12.07,12.07,0,0,0-6.05-2.39C126.87,8.93,129.13,9.23,130.68,11.38Zm1.91,4.53c.93,3.09,0,8.37-1.7,9.19.32-1.16.55-2.26.91-3.32,2.24-6.56-2.87-10.76-7.9-11.51-.19,0-.37-.09-.55-.13A8.46,8.46,0,0,1,132.59,15.91Zm-14.78-5.29c.13-.09.27-.17.41-.25l.49-.31a6.26,6.26,0,0,1,5.44-1.26,12.29,12.29,0,0,0-5.29,1.4l-.53.3c-.15.16-.28.42-.53.13Zm1,.57c0,.16-.1,0-.15,0Zm-.19.05c0,.54-.5.83-.83,1.2l-.3.29a1,1,0,0,1-.77.7,1.67,1.67,0,0,1,.6-.87l.3-.3C117.71,11.68,118.45,11.7,118.64,11.24Zm-.84-.61s.12.11.11.15-.15.1-.25.06Zm-.16.23c0,.05.16.09,0,.19s-.18,0-.25,0Zm-.23.16c.16.19.1.27-.13.26C117.32,11.19,117.37,11.11,117.41,11Zm-.16.29c0,.07,0,.15-.07.19s-.12,0-.16-.08Zm-.24.12c0,.06.09.13.07.18s-.18.08-.28,0Zm-.22.21h0c.31.25,0,.34-.15.44C116.53,11.89,116.72,11.78,116.79,11.64Zm-.16.46c0,.12,0,.25-.2.19C116.43,12.16,116.43,12,116.63,12.1Zm-.21.2c.08.2,0,.32-.21.39C116.06,12.46,116.22,12.37,116.42,12.3Zm-.21.41c0,.1,0,.28-.2.18C116,12.78,116,12.6,116.21,12.71Zm-.21.2c.11.2,0,.3-.18.39C115.76,13.12,115.77,13,116,12.91Zm-.2.42c0,.15,0,.32-.21.36C115.57,13.52,115.52,13.34,115.8,13.33Zm-.61.88c.09-.18.09-.45.38-.49-.26.85-.54,1.69-.76,2.55a7.07,7.07,0,0,0,.42,4.23,6.37,6.37,0,0,1,.49,1.91C114.1,19.68,113.78,17,115.19,14.21Zm1.68-.77a10.93,10.93,0,0,0-.51,9C114.81,18.87,115,15.24,116.87,13.44Zm-.33,9.62a.75.75,0,0,1-.05-.16l.06-.06a1,1,0,0,1,0,.16S116.56,23,116.54,23.06Zm.27.25a9.31,9.31,0,0,0,2.72,2.82C118,26,117.17,25.09,116.81,23.31Zm1.07,0c-2.62-4-1.79-9.19,1.77-11.71a4.54,4.54,0,0,1,.53-.3.24.24,0,0,1,.39-.11l-.2.27a9.53,9.53,0,0,0-1.47,12.2A5.93,5.93,0,0,0,125,26.15a3.51,3.51,0,0,0,1.94-.94,16.92,16.92,0,0,0,2.44-2.76c0,1.59-1.75,3.5-3.64,3.93A6.94,6.94,0,0,1,117.88,23.27Zm-1.46,5.84a3.86,3.86,0,0,1,5.23-.83,9,9,0,0,1-2.84,1.48,3.25,3.25,0,0,0-.57.24c-.37.25-1.17.4-.91.87s.73-.23,1.11-.38a13.53,13.53,0,0,0,3.27-1.58c.45-.33.59.07.81.31,1.59,1.73,3.21,3.45,4.79,5.2a6.58,6.58,0,0,0,7.32,1.84c.19,0,.39-.2.6,0-.08.46-.54.47-.86.59a31.13,31.13,0,0,1-4,1.41c-.2,0-.45.1-.38.35s.31.21.53.15c.63-.19,1.29-.32,1.9-.56,3.46-1.37,7-2.52,10.4-4,1.45-.65,1.65-.57,2.7.57,1.47,1.57,2.69,3.33,4.21,4.87a9.27,9.27,0,0,0,6,2.95c1.5.13,3,.3,4.56.54-.77.18-1.54.41-2.32.54-2.69.43-5.44.56-8,1.54a2.52,2.52,0,0,1-1.75-.14c-3.28-1.16-6.67-1.1-10.07-.91a40,40,0,0,1-6.92-.35c-2.77-.33-4.88-1.88-7-3.42a21.36,21.36,0,0,1-6.64-7.64c-.13-.26-.3-.5-.45-.75l.26-.22c1.79,1.38,2.42,3.71,4.22,5.09.16-.17.17-.31.08-.42-1.25-1.55-2.17-3.33-3.56-4.79a1.79,1.79,0,0,0-.84-.55C116.08,30.77,115.79,30.11,116.42,29.11ZM114.8,31c-2.46,1.29-4.87,2.73-7.69,3.18C109.85,33.43,112,31.48,114.8,31Zm-6.3,1.59.3-.18c.06.16,0,.2-.2.2Zm1.91-.77a2.77,2.77,0,0,1-1.07.5.43.43,0,0,1-.52.08l.45-.15C109.49,31.66,110,31.85,110.41,31.77Zm-.17-.59.1.14-.09,0Zm.27.56.13,0C110.63,31.83,110.57,31.76,110.51,31.74Zm.54-.36A4.65,4.65,0,0,0,112.89,27C113.73,29.41,113.05,31.15,111.05,31.38ZM112.31,26a5.59,5.59,0,0,1-1.3,4.78c-.18.21-.33.62-.77.4h0a7.9,7.9,0,0,0,1.41-7.08C112,24.53,112.07,24.53,112.31,26Zm-.82-2.4.07.07-.08.12s-.06,0-.06-.06A.33.33,0,0,1,111.49,23.56ZM111.06,28a8.14,8.14,0,0,1-2.59,4.1,12,12,0,0,1-3.74,2c.42-.67,1.27-.62,1.85-1,.34-.22.71-.4,1.06-.6l-.15-.21c-1.24.38-2.35,1.07-3.64,1.35a5.29,5.29,0,0,1,1.92-1c1.66-.78,3.49-1.31,4.18-3.28.64-1.79,1.21-3.55.66-5.45,0-.16-.31-.35-.14-.45s.27.15.32.31C111.72,25.08,111.4,26.54,111.06,28Zm-6.38,6.12c-.45.1-.85.44-1.47.19C103.8,34.33,104.18,33.88,104.68,34.07Zm-1.27-.3c0-.05,0-.13,0-.14s.25-.21.37,0C103.74,33.81,103.57,33.78,103.41,33.77Zm7.86-10.62.07.07-.07.13s-.07-.05-.06-.06A.84.84,0,0,1,111.27,23.15Zm-1.49-1.75s.15,0,.24,0l.2.2.18.24.15.26c.19.05.22.19.25.34l.17.26.16.18s0,0-.06.07l-.17-.18-.16-.25-.35-.3-.1-.27-.19-.22-.2-.21C109.82,21.53,109.7,21.52,109.78,21.4Zm-.47.61.16.13,0,0,0,0h0c1,1.19.78,2.59.74,4a8.56,8.56,0,0,1-.27,1.17c-.44,2.45-2.09,3.81-4.46,4.54,0,.28-.39.11-.5.31l-2,1A3.51,3.51,0,0,1,104.81,32l.54-.3c.39-.54,1.08-.68,1.59-1.08a7.39,7.39,0,0,0,2.49-8.14c0-.12-.07-.2,0-.27s-.1,0-.14-.07S109.3,22,109.31,22ZM99.59,36.46c1.13-.06,2.14-.58,3.38-.68-2.42,1.78-4.32,1.67-6.56-.36C97.73,35.2,98.4,36.53,99.59,36.46Zm-3.29-3c0-.18,0-.56.22-.42s1,0,1.08.57c0,.29-.29.41-.56.33C96.62,34,96.27,34,96.3,33.48Zm5.87-12.08c-1.79,1.45-2,3.52-2.33,5.53a10.16,10.16,0,0,1-.38,1.61c.06-2.7-.25-5.51,2.53-7.36a1.27,1.27,0,0,1,1-.49C103,21.26,102.59,21.35,102.17,21.4Zm.11.6c0,.08,0,.16,0,.25-1.06,2.08-1,4.43-1.78,6.59.06-2.34.15-4.69,1.57-6.75Zm-3.06,2.06A13.74,13.74,0,0,0,99,29.7c-2.25-3.45,0-9.43,3.93-10A6.11,6.11,0,0,0,99.22,24.06Zm-.44,10.39A2.47,2.47,0,0,1,99.53,33c.5-.37,1.07-.67,1.7-.19s.54,1,.15,1.59c-.26.38-.5.76-.82,1.25-.49-.83.29-1.4.12-2.12a3.83,3.83,0,0,0-1.31,1.14c-.09.13-.2.32-.4.25S98.73,34.64,98.78,34.45Zm9.74-6.76a5.8,5.8,0,0,1-3.84,3.48c3.1-2.46,4.61-5.4,3.37-9.3C109.59,23.71,109.26,25.75,108.52,27.69Zm-.64-6.18.13.23a.75.75,0,0,1-.23.07s-.08-.08-.12-.12Zm-1.23.07c1.1.85,1.47,2.49,1,4.41-.47,2.09-2,3.45-3.59,4.78a.28.28,0,0,1-.14.12c-.09,0-.21.09-.25.06s0-.15,0-.2l.2-.22a7.94,7.94,0,0,1,.74-1.08,7.71,7.71,0,0,0,1.93-7,4,4,0,0,1,0-.6A1.68,1.68,0,0,1,106.65,21.58ZM104.6,28.8c-.52.63-1,1.31-1.47,2a2.65,2.65,0,0,1-1.1.91c-.23.1-.47.21-.67,0s-.06-.37,0-.55c1.14-2,1.46-4.24,2-6.41.37-1.44.81-2.84,2.45-3.64C106.34,23.85,106.52,26.47,104.6,28.8Zm-2.28-1.74c-.26.79-.41,1.62-.67,2.42-.1.32-.08.75-.67.95.69-2.71.67-5.49,1.93-8a3.08,3.08,0,0,1,2.7-1.95C102.93,22.05,103.09,24.76,102.32,27.06ZM98.52,20l-.13.15L98.32,20Zm.17.55c.16-.13.55-.23.28-.58h-.41c.1-.28.25-.49.63-.38a6.91,6.91,0,0,1,5.83-.4c-.28.26-.54.1-.78.1s-.49,0-.73,0a4.29,4.29,0,0,0-4.11,1.91c-2.2,2.81-2.27,5.85-1.09,9a4.68,4.68,0,0,1,.43,1.56c-.71,0-1-.44-1.37-.93A7.23,7.23,0,0,1,98.69,20.51Zm-2.54,2,.22-.38c0-.15.06-.31.24-.38l.14-.27.63-.84.2-.16c.15-.12.33-.41.48-.23s-.15.28-.33.36l-.2.21a2,2,0,0,1-.66.77l-.12.29c-.09.11-.18.23-.28.34s0,.33-.24.38l-.12.2C96,22.64,96.06,22.55,96.15,22.47Zm-1.31,3a8.34,8.34,0,0,1,.85-2.24c.1-.09.07-.38.27-.26s0,.27-.14.35A7.9,7.9,0,0,0,96.08,30a11.78,11.78,0,0,0,1.57,2.09l.16.18c0,.15,0,.29,0,.43l-.15-.29-.25-.17C94.71,31.16,94.28,27.9,94.84,25.51ZM96.59,36.4c2,1.64,3.89,1.31,6.07.29,4-1.87,8.37-2.82,12.22-5,.86-.49,1.33-.19,1.71.56,1.92,3.82,4.85,6.92,7.76,10,2.19,2.34,5.13,3.54,8,4.8a6.11,6.11,0,0,1,2.34,1.45c.15,0,.22.18.14.26a.26.26,0,0,1-.4-.08,5.94,5.94,0,0,0-3.9-.22c-3.69,1.22-7.32.48-11-.29-.37-.08-.73-.22-1.11-.31a5.11,5.11,0,0,1-3.75-2.78c-.89-1.8-2.27-2.44-4.38-2.34A70.27,70.27,0,0,1,99,42.7a18.42,18.42,0,0,1-4.85-1.25,1.57,1.57,0,0,1-1.13-1.9,5.45,5.45,0,0,1,1.43-2.86C95.1,36.09,95.8,35.74,96.59,36.4Zm-1.2-1.15a5.5,5.5,0,0,0-2.65,3.37A2.81,2.81,0,0,1,95.39,35.25Zm-1.67-.76c.31,0,.62-.06,1.17-.11-1.1,1-2.65,1.42-2.85,2.94a6.47,6.47,0,0,0,.58,3.87c-.32.24-.47,0-.63-.14a3.67,3.67,0,0,1,.21-5.44c.25-.23.75-.3.69-.78C93.28,35,93.42,34.53,93.72,34.49Zm-4.24,5.13c0-.63,0-1.27.07-1.9a3.38,3.38,0,0,1,2.79-3c.19-.05.42-.29.51.09l-.39,0c-2.13,1.45-2.59,3.41-1.83,5.76C89.84,40.59,89.41,40.4,89.48,39.62Zm1.11,1.92a4.27,4.27,0,0,0-1.82.67C89,41.38,89.14,41.34,90.59,41.54Zm-2.24-3.7c.21.7-.49,1.19-.19,1.88a8,8,0,0,1,.31,1.9C87.2,41,87.18,40.14,88.35,37.84Zm-.88-.15.45-.59.18-.18.29-.16c0,.14,0,.23-.15.28l-.18.22-.41.62c-.22.59-.44,1.18-.65,1.78a2.39,2.39,0,0,0,.45,2.26c.15.22.53.4.2.76-.12.13-.25.26-.42.22-.37-.07-.43-.39-.54-.67C86,40.57,86.61,39.11,87.47,37.69Zm-.74,8.08a1.34,1.34,0,0,1,.58-1.09c.65,1.39,1.33,2.73,1.93,4.1a4.17,4.17,0,0,1,0,2.19,27.28,27.28,0,0,1-1.44,5.53c-.08.24-.16.57-.49.57s-.45-.29-.58-.52a4.68,4.68,0,0,1-.59-1.91A27.88,27.88,0,0,1,86.73,45.77ZM86,56.05c.27.8.56,1.7,1.67,1.84.25,0,.42.11.33.37s-.27.27-.5.18a15.17,15.17,0,0,1-2.18-1,1,1,0,0,1-.47-.95,13.35,13.35,0,0,1,.35-3.64C85.45,54.06,85.62,55.08,86,56.05Zm-1.9.51c-.7-2.24,0-4.31.94-6.34C84.8,52.34,84.09,54.4,84.06,56.56Zm2.81,3a3.22,3.22,0,0,1-2.08-1.7c.79.41,1.57.81,2.35,1.23.19.1.33.28.19.49S87,59.63,86.87,59.57ZM85.12,73.44a53.84,53.84,0,0,1,2.18-9.75,33.78,33.78,0,0,1-.64,6.66c-.14,1.13-.35,2.25-.5,3.38-.19,1.56.22,2.09,1.83,2.33a60.5,60.5,0,0,0,12,.29,37.74,37.74,0,0,0,6.44-.85,2.35,2.35,0,0,1,1.27,0,3.47,3.47,0,0,1-2,1.56,15.84,15.84,0,0,1-4.82.92,62.32,62.32,0,0,1-12.06-.29l-.42-.05C85.56,77.06,84.8,76.19,85.12,73.44Zm.94,5.38c0-.59.21-1.11,1-.91a29.61,29.61,0,0,0,5.93.67,2.17,2.17,0,0,1,2.14,1.56c.21.52.35,1.06.59,1.82a5.69,5.69,0,0,0-2.54-.48,3.34,3.34,0,0,0-3.41,2.93c-.11.64-.31.75-.93.57-2.07-.61-2.62-1.26-2.72-3.35C86.07,80.7,86,79.76,86.06,78.82Zm9.46,3.94-.13,0v-.11Zm-.13-.09a.36.36,0,0,1-.35,0c-2-.37-3.57.09-4.5,2a1.81,1.81,0,0,1,.85-2.15,3.7,3.7,0,0,1,4,.08Zm-7,27a21.27,21.27,0,0,1-1.08-6.27c-.29-4.94-.62-9.88-1-14.82a3.4,3.4,0,0,1,.23-1.61c.29,1.53.58,3.06.85,4.59.6,3.33,1,6.68,1.25,10,.12,1.35-.17,2.67-.15,4a9.25,9.25,0,0,0,.59,4l1.74,5.4A20.27,20.27,0,0,1,88.38,109.63Zm.85-5.08q1.18,5.27,2.38,10.53C90.23,111.71,89,108.28,89.23,104.55Zm3.08,15.22v0c-.41.26-.45-.08-.55-.31a8.68,8.68,0,0,1-.72-2.54A14.44,14.44,0,0,1,92.31,119.77Zm-.69,1.08c.16-.12.28,0,.33.1.63,1.17,1.77,1.35,3,1.46,1.58.14,2.56-.63,2.59-2.15,0-.33,0-.67,0-1-.13-.78-.66-1-1.42-1-.21,0-.42,0-.63,0-2.09,0-2.61-.38-3.07-2.42-.83-3.69-1.47-7.43-2.54-11.06-1-3.24-.81-6.56-1.35-9.82s-1-6.61-1.89-10a39.54,39.54,0,0,0,6.54,1.57c.64.14.84.44,1.53,1.76a1.7,1.7,0,0,0-1.14-2.19,7.47,7.47,0,0,0-1.64-.34c-.87-.09-1-.45-.56-1.13a2.77,2.77,0,0,1,2.86-1.42c2,.36,2.57.75,2.77,2.35.84,6.56,1.57,13.12.39,19.71-.21,1.19-.07,2.39-.19,3.6a11,11,0,0,1-.74-4.57,38.81,38.81,0,0,0-.64-9.5,23.48,23.48,0,0,0-1.43-5.12c-.11-.24-.2-.63-.52-.49s0,.44.09.65a45.75,45.75,0,0,1,2,10.35c.09,1,0,1-1,.63-1.67-.71-2.6-.26-2.92,1.48-.6,3.21.1,6.34.87,9.43a26.58,26.58,0,0,0,1.64,4.87c.48,1,.93,1.17,1.9.68l.4-.46c.63-.9.47-2,.68-3a1.7,1.7,0,0,1,.16-1.12v1.12a15.75,15.75,0,0,1,.07,3.63c0,.13,0,.26,0,.39a2.27,2.27,0,0,1,0,1.41c0,.87,0,1.74.08,2.6,0,.57-.14.83-.82.83a33.54,33.54,0,0,1-3.88-.24C91.84,122.32,91.66,122.1,91.62,120.85Zm4.63,0a7.23,7.23,0,0,1-2.69-.28.94.94,0,0,1-.73-.88c-.06-.55-.15-1.09-.22-1.64,1,1.13,2.17.91,3.38.64.62-.14,1,.14.94.73S97.15,120.76,96.25,120.87Zm.08.66A2.8,2.8,0,0,1,93,121,5.66,5.66,0,0,0,96.33,121.53Zm.59-10.68a14.78,14.78,0,0,1-.23,4.78,1.14,1.14,0,0,1-.18.46c-.21.39-.43.9-.89.89s-.65-.57-.79-1a43.81,43.81,0,0,1-2.18-8.25,21.66,21.66,0,0,1-.26-3.18,9.1,9.1,0,0,1,.28-2.71c.31-.92.7-1.06,1.65-.74s1.63.85,1.54,2.07C95.67,105.81,96.38,108.32,96.92,110.85Zm0,13c-1.22,0-2.44,0-3.67,0-.24,0-.52,0-.48-.33s.14-.46.47-.35C94.4,123.6,95.71,123.34,96.88,123.89Zm-5.55,3.92c.07-.46.08-.93.18-1.39.35-1.6.76-1.91,2.47-1.93,1,0,2,0,2.93,0a.73.73,0,0,1,.84.52c1.11,2.64.45,3.6-2.5,3.58H94.1v-.09c-.7,0-1.4,0-2.1,0S91.25,128.32,91.33,127.81Zm6.12,2.08a34,34,0,0,1-5.34,0c-.35,0-.65-.13-.63-.51s.4-.3.66-.3c1.11,0,2.23.06,3.34.06a4.6,4.6,0,0,0,2.74-.56C98.76,129.53,98.28,129.81,97.45,129.89Zm.83-12.17c.39-2.32-.24-4.6-.24-6.9a44.55,44.55,0,0,1,.19-7C98.9,105.8,99,116.16,98.28,117.72Zm10.33,11.14c-2.75.16-5.5.29-8.25.42a1.45,1.45,0,0,1-.91-.16.75.75,0,0,1-.33-.8c.11-.43.45-.13.68-.12a76.18,76.18,0,0,0,8.81.13,9.36,9.36,0,0,0,1.21-.25C109.62,128.82,109.07,128.83,108.61,128.86Zm2.19,0a1.31,1.31,0,0,1-.48-1.3A2.85,2.85,0,0,0,108.9,125a5.43,5.43,0,0,1-2.79-3.32c0-.14-.17-.23-.06-.42a5.38,5.38,0,0,0,.4-3,29.55,29.55,0,0,1,.29-4.2,36.56,36.56,0,0,0,.25-7.82,39.82,39.82,0,0,1,1.31-12.62,59.7,59.7,0,0,0,1.2-15.89c-.06-1.25-.76-2.45-.41-3.75a12.17,12.17,0,0,0,.43-3,8,8,0,0,1,.87,3.31c-.07,5.52-.22,11,.25,16.57a58.46,58.46,0,0,0,2,12.17,18.17,18.17,0,0,1,.4,5.7,22.75,22.75,0,0,0,1,8.63,1.76,1.76,0,0,1-.42,2,1.82,1.82,0,0,0-.21,2.35c1.25,2.51.53,4.79-2,6.36A1.21,1.21,0,0,0,110.8,128.9ZM114,126c.51-1.28,1.19-2.27,3-1.64-1.87,1.13-2.24,3.82-4.95,4A4.31,4.31,0,0,0,114,126Zm2.35-.26c1.11-1.52,2.8-1.74,4.59-1.67.4,0,.44.28.46.54a7.83,7.83,0,0,1-.42,3.46c-.26.7-.9.78-1.55.8-2.14,0-4.27,0-6.46.08C114.61,128.38,115.38,127,116.3,125.75Zm5.16,4.53A34.78,34.78,0,0,1,114,130c-.08,0-.16-.11-.27-.18a34.25,34.25,0,0,1,5.87-.47c1.43-.08,1.74-.33,2-1.67a13.51,13.51,0,0,0,.25-3.69,3.24,3.24,0,0,1,.8,2,22.26,22.26,0,0,1,.18,2.7A1.46,1.46,0,0,1,121.46,130.28Zm3.63.19H123a9.5,9.5,0,0,0-.27-6.79c-.1-.25-.16-.43.05-.62,1.38-1.24,1-2.72.62-4.2a4.12,4.12,0,0,1-.65-2.19c.07-5.4.13-10.79.24-16.18a13,13,0,0,1,.4-2.68c1-4.64.71-9.41,1.41-14.08a3,3,0,0,0-1.2-3.13c-1-.71-.57-1.72-.56-2.61,0-1.59.07-1.61,1.68-2,3.14-.8,6.3-1.53,9.49-2.09,1.67-.29,2.12.11,2,1.71-.45,5.24-1.15,10.45-1.85,15.66a4.64,4.64,0,0,1-4.18,4.36A4.93,4.93,0,0,0,126.7,98c-1.12,1.8-.68,2.85,1.61,3.29-1.16,1.51-1,3.23-1,4.93a57.15,57.15,0,0,1-.14,7.74,1,1,0,0,1-.15.43,17.88,17.88,0,0,1-1.08-4.64c-.52-3-.64-6-1-9a9.77,9.77,0,0,1,.2-2.9,2.82,2.82,0,0,1,2.44-2.53,15.59,15.59,0,0,0,2.31-.66c.5-.17,1-.46,1-1s-.42-.9-.88-1.17a3.82,3.82,0,0,0-1.71-.42c-1.36-.09-1.56-.27-1.49-1.6a34.28,34.28,0,0,1,1-6.44c.18-.75.66-1.73-.53-2s-1.2.89-1.33,1.53c-.8,3.85-1.57,7.7-.79,11.65a1.13,1.13,0,0,1,0,.68c-1.11,2.52-.85,5.13-.5,7.73a32.88,32.88,0,0,1-.11,8.41c0,.14,0,.29,0,.43l-.12,7v.4l0,.41a1,1,0,0,0,.11.28c1.38,1.88.73,3.89.46,5.9a5.13,5.13,0,0,0,.41,3.62C125.61,130.39,125.39,130.47,125.09,130.47Zm2.8-37.87c.48,0,1,.05,1.46.13a1.17,1.17,0,0,1,.87.66c.15.31-.13.51-.35.64-1.12.68-2.46.74-3.66,1.19-.35.12-.38-.34-.46-.56a11.28,11.28,0,0,1-.3-3.36,42,42,0,0,1,1.21-7.86c.08-.32,0-.91.55-.78s.19.65.12,1a31.81,31.81,0,0,0-1,7.25C126.3,92.19,126.53,92.46,127.89,92.6ZM132.72,130a1.77,1.77,0,0,1-.9.22c-1.57.16-3.15.1-4.72.12a1.22,1.22,0,0,1-1.26-.87,6.75,6.75,0,0,1,.46-5.28,14.67,14.67,0,0,0-.42,3.23c.09,1.5.47,1.87,2,1.91a39.57,39.57,0,0,0,4.62-.06c.24,0,.52-.13.59.2S132.92,129.85,132.72,130Zm.2-3.36c-.38.23-.5-.33-.71-.56a5.13,5.13,0,0,0-1.57-1.16c1.8-.64,2.25-.51,2.6.56A1,1,0,0,1,132.92,126.63Zm.8-.47.81,1.45c.14.24.62.4.36.71a1.22,1.22,0,0,1-1.14.28c-.36-.09-.35-.48-.32-.77C133.48,127.35,133.59,126.88,133.72,126.16Zm-.06-1.65c1,1,1.27,2.28,1.88,3.44A11.21,11.21,0,0,1,133.66,124.51Zm-.13,5.34.12-.16c.3-.69,1.17-.45,1.61-.91l.25,0-.1.2a2.85,2.85,0,0,1-1.63.9Zm6.07-.77a2.81,2.81,0,0,0,.56,1.43h-6.29l0-.12.86-.25c1.53-.42,2-1.22,1.39-2.64a10.49,10.49,0,0,0-2.49-4c-.29-.26-.24-.43,0-.64a4.58,4.58,0,0,0,1.18-4.66,15.3,15.3,0,0,1,.24-6.46,30.86,30.86,0,0,0,.55-5.58A29.87,29.87,0,0,1,137,97a28.19,28.19,0,0,0,1.05-10.44c-.16-3-.17-6-.58-8.93a11.21,11.21,0,0,0-.87-4c-.1-.18-.1-.34.05-.45.86-.66.72-1.55.59-2.41-.65-4.13-1.34-8.26-2.28-12.35a3.07,3.07,0,0,0-.26-.86c-.33-.52-.22-.87.23-1.29a2.57,2.57,0,0,0,.68-1.76,11.72,11.72,0,0,0-.37-4.43,1.23,1.23,0,0,1,1.13.45,19.63,19.63,0,0,0,7.61,5,14.47,14.47,0,0,0-4.29,1.87,2.63,2.63,0,0,0-1.39,2c-.1,1.93-.18,3.9,1.59,5.33.26.21.07.33,0,.49a13,13,0,0,0-.47,10.33c0,.09.13.21.1.26-1,1.61-.31,3.33-.34,5-.08,4.79-.07,9.58.2,14.37a16.31,16.31,0,0,0,.51,2.52c.15.65-.57,1.46.28,2.1a8.05,8.05,0,0,0,.62,6.14,10.21,10.21,0,0,1,1,5.12,32.56,32.56,0,0,0,.35,5.81,5.48,5.48,0,0,0,1.22,2.63,4.25,4.25,0,0,1-1.63,6C140,126.39,139.46,127.28,139.6,129.08Zm-2.81-50.69c.46,5.35,1.12,10.69.11,16C137.31,89.08,136.31,83.75,136.79,78.39Zm3.6,49.92c.16,1,.28,1.7,1.21,1.82l2.23.29C141.4,130.71,140,130.58,140.39,128.31Zm2,1.34a1,1,0,0,1-.91-.44,2.21,2.21,0,0,1,1.41-.16,28.63,28.63,0,0,1,4.06.37,3.25,3.25,0,0,0,3.27-1c.22-.22.49-.78.87-.36s-.08.7-.43,1a3.62,3.62,0,0,1-1.9.77A26.63,26.63,0,0,1,142.37,129.65Zm7.15.65a4.73,4.73,0,0,0,2.14-1.16c.2.43.37.81.57,1.23A13.16,13.16,0,0,1,149.52,130.3Zm2.63-1.58c-.12-.11,0-.16.06-.15s.14.09.2.14l-.07.19Zm7.19,1.76a53.94,53.94,0,0,1-5.54-.08,1.47,1.47,0,0,1-1.46-1.29,10.57,10.57,0,0,0,8,.15C160.78,130.38,160.73,130.48,159.34,130.48Zm8.94,0c-2,0-4,0-6,0a.89.89,0,0,1-1.05-.79c-.43-1.73-.32-3.54-1-5.22a.37.37,0,0,1,0-.29c.75-1.11.5-2.31.38-3.51a22.21,22.21,0,0,1,.71-6.07,25.48,25.48,0,0,0,.42-4c.09-6.77.79-13.5,1.52-20.23.35-3.2.82-6.39.94-9.6a1.7,1.7,0,0,1,.53-1.47c1.31-.93,1.35-2.25,1.26-3.63,0-.73-.11-1.46-.13-2.2a1.41,1.41,0,0,1,.23-1.05c1.06.58,1.3,1.16.92,2.19a7,7,0,0,0-.34,2.08A80.15,80.15,0,0,0,167.83,92c.63,4.55,1.54,9.07,2,13.63a81.94,81.94,0,0,0,1.4,11.25,6.74,6.74,0,0,1-.16,3.18c-.37,1.55-.52,3.15-.76,4.73a4.5,4.5,0,0,1-.62,1.79c-1.07,1.71-.83,2.67.94,3.75A7.17,7.17,0,0,1,168.28,130.5Zm1.43-1.8c2.11.68,2.9-.58,3.71-1.85a3.78,3.78,0,0,1,3.53-2.08c1.7.08,2.58,1.24,2,2.8-.2.6-.74,1.07-.73,1.75C175.78,130.25,171.08,130,169.71,128.7Zm8.57.61c2-1.31,1.93-3.76-.17-5.08,1-.33,1-.32,1.49.64a4.57,4.57,0,0,1,.11,3.89,1.45,1.45,0,0,1-1.05,1C178.09,129.9,178.38,129.48,178.28,129.31Zm.83,1c1.12-.51,1.3-1.39,1.62-2.25.24.77,0,1.62.92,2.39Zm9.79-.29a19.94,19.94,0,0,1-6.26.24c-1.06-.15-1-1.16-1.26-2,.64,1.25,1.79,1.25,3,1.24a24.75,24.75,0,0,0,4.38-.37c.22,0,.62-.48.74.08A.67.67,0,0,1,188.9,130.05Zm.91.46a1.88,1.88,0,0,0,.28-1.86c-.43-1.55-.7-3.13-1.27-4.65a3.47,3.47,0,0,1-.23-1.06,44.14,44.14,0,0,1,.61-10.88,46.25,46.25,0,0,0,.89-13.89,27,27,0,0,1,.79-7.47c.33-1.74.51-3.51.76-5.26.27.09.23.34.26.57,1.44,8.74,2,17.58,3.3,26.33a24.06,24.06,0,0,1,.17,5,5,5,0,0,0,.51,3,2.06,2.06,0,0,1-.5,2.56,33.09,33.09,0,0,1-3.8,4,1.69,1.69,0,0,0,.73,3,5.18,5.18,0,0,1,1.26.46Zm2.18-2.8a34,34,0,0,1,2.59-2.89,19.76,19.76,0,0,0,.61,3.14A8.64,8.64,0,0,0,192,127.71Zm2.69.88c-.78.09-1.49.63-2.33.33-.25-.09-.49-.17-.45-.45s.33-.18.52-.19C193.19,128.25,193.9,128.67,194.68,128.59Zm-.86,1a11.19,11.19,0,0,1,4.89.43A8.64,8.64,0,0,1,193.82,129.63Zm4-.46c1.8-.07,3.14-.54,4-2C202.27,129.28,200.83,130,197.77,129.17Zm3.55.91c.25-.11.37-.46.73-.36C202,130.16,201.67,130.16,201.32,130.08Zm.74-.37c-.11-.11,0-.2.05-.29s.08,0,.09,0A.18.18,0,0,1,202.06,129.71Zm.27-.47v-1C202.5,128.54,202.43,128.75,202.33,129.24Zm-1.24-7.58a7.59,7.59,0,0,1-4.07-.94l4.64-.47c.22,0,.53,0,.48-.34a36.72,36.72,0,0,1-4.69.2c-.4,0-.85-.06-.46-.62,1.77-2.49,1.25-5.21.77-7.87-.82-4.48-1.19-9-2.15-13.48-.14-.64,0-1,.82-1,1.82,0,3.64,0,5.46,0,.3,0,.7-.07.83.27s-.17.57-.37.79a5.48,5.48,0,0,1-2.11,1.27,4,4,0,0,0-1.2.6c1.63.35,2.65-.93,4-1.53.09.6-.35.88-.64,1.11a3.64,3.64,0,0,0-1.31,3.33,34.83,34.83,0,0,0,.74,5.57,19.44,19.44,0,0,1,.38,5.89,25.14,25.14,0,0,0,.23,5.48C202.93,121.33,202.67,121.69,201.09,121.66Zm1.56,3.25a6,6,0,0,1,.12-2.86A3.52,3.52,0,0,1,202.65,124.91Zm2.8,4.55a7.18,7.18,0,0,1-1,.33c-1.47.4-1.47.4-1.37-1.07a7.94,7.94,0,0,1,.13-1.29c.11-.46-.13-1.17.48-1.31a2.67,2.67,0,0,1,2,.29A1.66,1.66,0,0,1,205.45,129.46Zm-1.69-8.2c-.46-1.11-.12-1.63,2.25-.91A7.43,7.43,0,0,0,203.76,121.26Zm2.81.26c.09.29-.16.48-.38.64a4.5,4.5,0,0,1-1.7.68c-.24.06-.6.24-.68-.16s-.18-.61.13-.83a4.51,4.51,0,0,1,1.79-.76C206.16,121.11,206.48,121.19,206.57,121.52Zm-2.73,3c.38,0,.76,0,1.27.07s1-.1,1.54-.18c.19,0,.41-.21.52.06s0,.38-.22.52a6.09,6.09,0,0,1-3.28,0,.36.36,0,0,1-.11-.25C203.55,124.55,203.69,124.5,203.84,124.51Zm3.43,3.72a3.53,3.53,0,0,0-1.16-2.23l1.16-.33Zm-1.55-4.33a7.47,7.47,0,0,1-2-.17c1.31-.57,2.89-.56,3.65-2C207.69,123.53,207.44,123.84,205.72,123.9ZM207.6,121a.89.89,0,0,0-.91-1,8.89,8.89,0,0,1-2.72-.85c-.26-.13-.81-.26-.59-.67s.6-.06.89,0c.45.18.88.42,1.34.56a1.71,1.71,0,0,0,2.44-1.32,12.79,12.79,0,0,0,.27-1.48c.06-.49.08-1,.12-1.46A10.73,10.73,0,0,1,207.6,121Zm2.2-11.84a24.78,24.78,0,0,1,1.75-15.86C211,98.62,210.34,103.9,209.8,109.19Zm2.67-25.7a68.59,68.59,0,0,1-3.4,15.6c-.93,2.73-.42,5.51-.2,8.27a12.22,12.22,0,0,1-.78,6.3,14.91,14.91,0,0,0-.72,3.74c-.24,1.28-.48,1.42-1.74,1.07-1.7-.48-2-.93-1.72-2.62.38-2.14,1.23-4.17,1.41-6.36.27-3.34.72-6.76-.38-10-1-2.94-.7-5.82-.62-8.75.06-2,.1-4.08.1-6.12,0-1.59.45-2.85,2.31-3.19.19,0,.38-.15.36-.39a8.34,8.34,0,0,0,5.86-2A36.19,36.19,0,0,1,212.47,83.49Zm-.61-5.11h-.16l.14-.22C211.85,78.22,211.85,78.3,211.86,78.38Zm0-.24.37,0C212.12,78.36,212,78.2,211.86,78.14Zm-.44-.46a12.1,12.1,0,0,1-5.08-.47c-3.42-.83-6.81-1.77-10.21-2.69-1.56-.42-1.86-1.66-.71-2.77a2.23,2.23,0,0,1,.77-.52,34.69,34.69,0,0,0,7.05-3.92,2.88,2.88,0,0,1,2.88-.31c2.66,1.25,5.16,2.69,6.24,5.59a10.61,10.61,0,0,1,.66,3.13C213.09,77.15,212.88,77.41,211.42,77.68Zm2.1-2.68c-.36-4.63-3.78-6.85-7.78-8.88C209.87,65.46,213.84,70.14,213.52,75Zm0-4.48c-1.06-2.07-3-3.34-4.72-4.75-.72-.58-.45-.91.23-1.08a28.1,28.1,0,0,1,2.77-.48c.53-.08.62.34.76.67A17.86,17.86,0,0,1,213.56,70.52ZM213,63.1a7.38,7.38,0,0,1-2.95.48c.06-.21.25-.18.41-.22a6,6,0,0,0,4.7-3.42A2.93,2.93,0,0,1,213,63.1Z" transform="translate(4 -8)"/></g></g></g></svg>